<svg width="52" height="51" viewBox="0 0 52 51" fill="none" xmlns="http://www.w3.org/2000/svg">
<ellipse cx="25.5848" cy="25.2371" rx="25.5848" ry="25" fill="#FF6B00" fill-opacity="0.2"/>
<path d="M25.585 13.5454C20.4549 13.5454 16.2812 17.6236 16.2812 22.6365C16.2812 25.4559 17.7742 28.7304 20.7186 32.3691C22.8731 35.0316 24.9965 36.8717 25.0859 36.9487C25.371 37.1945 25.7989 37.1946 26.0841 36.9487C26.1734 36.8717 28.2969 35.0316 30.4514 32.3691C33.3958 28.7304 34.8887 25.4559 34.8887 22.6365C34.8887 17.6236 30.7151 13.5454 25.585 13.5454V13.5454ZM25.585 35.3904C23.7922 33.7209 17.79 27.7485 17.79 22.6365C17.79 18.4365 21.2868 15.0196 25.585 15.0196C29.8832 15.0196 33.38 18.4365 33.38 22.6365C33.38 27.7485 27.3777 33.721 25.585 35.3904Z" fill="#FF6B00"/>
<path d="M31.3561 22.1998L26.0756 17.7771C25.7931 17.5405 25.3763 17.5405 25.0937 17.7771L19.8132 22.1998C19.4969 22.4647 19.4603 22.9301 19.7314 23.2391C20.0026 23.5482 20.4788 23.584 20.7951 23.3191L21.4357 22.7825V26.445C21.4357 26.8521 21.7734 27.1821 22.19 27.1821H28.9793C29.3959 27.1821 29.7336 26.8521 29.7336 26.445V22.7825L30.3742 23.3191C30.6919 23.5852 31.168 23.5468 31.4379 23.2391C31.709 22.9301 31.6724 22.4647 31.3561 22.1998ZM28.2249 25.7079H22.9444V21.5189L25.5846 19.3076L28.2249 21.5189V25.7079Z" fill="#FF6B00"/>
</svg>
