<svg width="30" height="31" viewBox="0 0 30 31" fill="none" xmlns="http://www.w3.org/2000/svg">
<circle cx="15" cy="15.2369" r="15" fill="#9DBAFF" fill-opacity="0.5"/>
<path d="M24.5635 14.4378L15.8135 7.51473C15.3454 7.14434 14.6546 7.14434 14.1865 7.51473L5.43652 14.4378C4.91238 14.8525 4.85167 15.581 5.30097 16.0648C5.75027 16.5486 6.53941 16.6047 7.06355 16.1899L8.12496 15.3501V21.0831C8.12496 21.7203 8.68464 22.2369 9.37496 22.2369H20.625C21.3153 22.2369 21.875 21.7203 21.875 21.0831V15.3501L22.9365 16.1899C23.4629 16.6065 24.2518 16.5465 24.699 16.0648C25.1483 15.581 25.0876 14.8525 24.5635 14.4378ZM19.375 19.9292H10.625V13.372L15 9.91047L19.375 13.372V19.9292Z" fill="currentColor"/>
</svg>
