<svg width="21" height="25" viewBox="0 0 21 25" fill="none" xmlns="http://www.w3.org/2000/svg">
<path d="M19.7983 8.59442C18.1597 9.60696 17.1477 11.3427 17.1477 13.2714C17.1477 15.4411 18.4489 17.4179 20.4248 18.2376C20.0393 19.4912 19.4609 20.6484 18.7381 21.7092C17.6778 23.2039 16.5694 24.7468 14.9308 24.7468C13.2923 24.7468 12.8103 23.7825 10.8826 23.7825C9.00312 23.7825 8.32842 24.795 6.78625 24.795C5.24408 24.795 4.18384 23.3967 2.97902 21.661C1.38866 19.2502 0.472997 16.4536 0.424805 13.5125C0.424805 8.73907 3.50914 6.18362 6.59348 6.18362C8.23203 6.18362 9.58143 7.24437 10.5935 7.24437C11.5573 7.24437 13.0995 6.1354 14.9308 6.1354C16.8585 6.08719 18.6899 7.00329 19.7983 8.59442ZM14.0634 4.11033C14.8826 3.14601 15.3164 1.94061 15.3646 0.686994C15.3646 0.542346 15.3646 0.349482 15.3164 0.204834C13.9188 0.349482 12.6176 1.02451 11.7019 2.08526C10.8826 3.00136 10.4007 4.15855 10.3525 5.41216C10.3525 5.55681 10.3525 5.70146 10.4007 5.84611C10.4971 5.84611 10.6417 5.89432 10.7381 5.89432C12.0393 5.79789 13.2441 5.12287 14.0634 4.11033Z" fill="#272727"/>
</svg>
