

<svg width="27" height="27" viewBox="0 0 27 27" fill="black" xmlns="http://www.w3.org/2000/svg">
<path d="M8.6705 13.5L12.2102 17.0398C12.4299 17.2594 12.4299 17.6156 12.2102 17.8352C11.9906 18.0549 11.6344 18.0549 11.4148 17.8352L6.91475 13.3352C6.69508 13.1156 6.69508 12.7594 6.91475 12.5398L11.4148 8.03975C11.6344 7.82008 11.9906 7.82008 12.2102 8.03975C12.4299 8.25942 12.4299 8.61558 12.2102 8.83525L8.6705 12.375L18.5625 12.375C18.8732 12.375 19.125 12.6268 19.125 12.9375C19.125 13.2482 18.8732 13.5 18.5625 13.5L8.6705 13.5ZM12.9375 2.25C18.84 2.25 23.625 7.03496 23.625 12.9375C23.625 18.84 18.84 23.625 12.9375 23.625C7.03496 23.625 2.25 18.84 2.25 12.9375C2.25 7.03496 7.03496 2.25 12.9375 2.25ZM12.9375 3.375C7.65628 3.375 3.375 7.65628 3.375 12.9375C3.375 18.2187 7.65628 22.5 12.9375 22.5C18.2187 22.5 22.5 18.2187 22.5 12.9375C22.5 7.65628 18.2187 3.375 12.9375 3.375Z" fill="currentColor" stroke="currentColor" stroke-width="0.5"/>
</svg>
