<svg width="20" height="20" viewBox="0 0 20 20" fill="none" xmlns="http://www.w3.org/2000/svg">
<path d="M10 1C5.03754 1 1 5.03754 1 10C1 14.9625 5.03754 19 10 19C14.9625 19 19 14.9625 19 10C19 5.03754 14.9625 1 10 1ZM10 2.38462C14.2141 2.38462 17.6154 5.78592 17.6154 10C17.6154 14.2141 14.2141 17.6154 10 17.6154C5.78592 17.6154 2.38462 14.2141 2.38462 10C2.38462 5.78592 5.78592 2.38462 10 2.38462ZM7.38308 6.38615L6.38615 7.38308L9.00585 10L6.38754 12.6169L7.38446 13.6138L10 10.9948L12.6169 13.6118L13.6138 12.6169L10.9948 10L13.6118 7.38308L12.6169 6.38615L10 9.00585L7.38308 6.38754V6.38615Z" fill="currentColor"/>
</svg>
