<svg width="24" height="25" viewBox="0 0 24 25" fill="none" xmlns="http://www.w3.org/2000/svg">
<path d="M20.756 5.58194C20.662 5.47375 20.5458 5.38697 20.4154 5.32746C20.285 5.26795 20.1433 5.23708 20 5.23694H6.181L5.986 4.07294C5.94718 3.83944 5.82679 3.62728 5.64624 3.4742C5.4657 3.32112 5.23671 3.23705 5 3.23694H2.75C2.48478 3.23694 2.23043 3.3423 2.04289 3.52983C1.85536 3.71737 1.75 3.97172 1.75 4.23694C1.75 4.50215 1.85536 4.75651 2.04289 4.94405C2.23043 5.13158 2.48478 5.23694 2.75 5.23694H4.153L6.013 16.4009L6.058 16.5249L6.112 16.6759L6.232 16.8549L6.327 16.9669L6.52 17.0969L6.632 17.1619C6.7483 17.2105 6.87296 17.236 6.999 17.2369H18C18.2652 17.2369 18.5196 17.1316 18.7071 16.944C18.8946 16.7565 19 16.5022 19 16.2369C19 15.9717 18.8946 15.7174 18.7071 15.5298C18.5196 15.3423 18.2652 15.2369 18 15.2369H7.847L7.681 14.2369H19C19.2406 14.237 19.4732 14.1502 19.6551 13.9926C19.8369 13.835 19.9558 13.6171 19.99 13.3789L20.99 6.37894C21.0103 6.23709 20.9998 6.09254 20.9595 5.95505C20.9191 5.81756 20.8497 5.69033 20.756 5.58194ZM18.847 7.23694L18.562 9.23694H15V7.23694H18.847ZM14 7.23694V9.23694H11V7.23694H14ZM14 10.2369V12.2369H11V10.2369H14ZM10 7.23694V9.23694H7L6.852 9.26694L6.514 7.23694H10ZM7.014 10.2369H10V12.2369H7.347L7.014 10.2369ZM15 12.2369V10.2369H18.418L18.133 12.2369H15Z" fill="currentColor" fill-opacity="0.8"/>
<path d="M8.5 21.2369C9.32843 21.2369 10 20.5654 10 19.7369C10 18.9085 9.32843 18.2369 8.5 18.2369C7.67157 18.2369 7 18.9085 7 19.7369C7 20.5654 7.67157 21.2369 8.5 21.2369Z" fill="currentColor" fill-opacity="0.8"/>
<path d="M17.5 21.2369C18.3284 21.2369 19 20.5654 19 19.7369C19 18.9085 18.3284 18.2369 17.5 18.2369C16.6716 18.2369 16 18.9085 16 19.7369C16 20.5654 16.6716 21.2369 17.5 21.2369Z" fill="currentColor" fill-opacity="0.8"/>
</svg>
