<svg width="22" height="21" viewBox="0 0 22 21" fill="none" xmlns="http://www.w3.org/2000/svg">
<path d="M16.7378 8.12701C18.7053 8.12701 20.3003 6.53332 20.3003 4.56741C20.3003 2.6015 18.7053 1.00781 16.7378 1.00781C14.7703 1.00781 13.1753 2.6015 13.1753 4.56741C13.1753 6.53332 14.7703 8.12701 16.7378 8.12701Z" stroke="currentColor" stroke-opacity="0.9" stroke-width="1.5" stroke-linecap="round" stroke-linejoin="round"/>
<path d="M4.86279 19.9922C6.83031 19.9922 8.42529 18.3986 8.42529 16.4326C8.42529 14.4667 6.83031 12.873 4.86279 12.873C2.89528 12.873 1.30029 14.4667 1.30029 16.4326C1.30029 18.3986 2.89528 19.9922 4.86279 19.9922Z" stroke="currentColor" stroke-opacity="0.9" stroke-width="1.5" stroke-linecap="round" stroke-linejoin="round"/>
<path d="M13.1753 12.8731H20.3003V18.8058C20.3003 19.1205 20.1752 19.4223 19.9525 19.6448C19.7298 19.8673 19.4277 19.9923 19.1128 19.9923H14.3628C14.0478 19.9923 13.7458 19.8673 13.5231 19.6448C13.3004 19.4223 13.1753 19.1205 13.1753 18.8058V12.8731ZM1.30029 1.00781H8.42529V6.94048C8.42529 7.25517 8.30018 7.55696 8.07748 7.77948C7.85478 8.002 7.55274 8.12701 7.23779 8.12701H2.48779C2.17285 8.12701 1.8708 8.002 1.6481 7.77948C1.4254 7.55696 1.30029 7.25517 1.30029 6.94048V1.00781Z" stroke="currentColor" stroke-opacity="0.9" stroke-width="1.5" stroke-linecap="round" stroke-linejoin="round"/>
</svg>
