<svg width="24" height="24" viewBox="0 0 24 24" fill="none" xmlns="http://www.w3.org/2000/svg">
<path d="M12.0002 1.19983C6.04524 1.19983 1.2002 6.04488 1.2002 11.9998C1.2002 17.9548 6.04524 22.7998 12.0002 22.7998C17.9551 22.7998 22.8002 17.9548 22.8002 11.9998C22.8002 6.04488 17.9551 1.19983 12.0002 1.19983ZM12.0002 2.86137C17.0571 2.86137 21.1387 6.94294 21.1387 11.9998C21.1387 17.0567 17.0571 21.1383 12.0002 21.1383C6.9433 21.1383 2.86173 17.0567 2.86173 11.9998C2.86173 6.94294 6.9433 2.86137 12.0002 2.86137ZM8.85989 7.66321L7.66358 8.85952L10.8072 11.9998L7.66524 15.1401L8.86155 16.3364L12.0002 13.1936L15.1405 16.334L16.3368 15.1401L13.194 11.9998L16.3343 8.85952L15.1405 7.66321L12.0002 10.8068L8.85989 7.66488V7.66321Z" fill="currentColor"/>
</svg>
