<svg width="23" height="23" viewBox="0 0 23 23" fill="none" xmlns="http://www.w3.org/2000/svg">
<path d="M11.8814 0.578613C5.80127 0.578613 0.864258 5.51708 0.864258 11.5972C0.864258 17.6773 5.80132 22.6157 11.8813 22.6157C17.9613 22.6157 22.8999 17.6773 22.8999 11.5972C22.8999 5.51708 17.9614 0.578613 11.8814 0.578613ZM17.2441 2.98536C20.115 4.77552 22.024 7.96068 22.024 11.5972C22.024 12.4008 21.9305 13.1827 21.7544 13.9321L20.149 13.0855L21.1802 15.6577C20.7371 16.6724 20.132 17.5999 19.399 18.4087L17.3759 16.9586L14.3466 19.1954L11.4565 19.522L10.8047 17.5636L8.47404 18.8219L5.28218 17.9342L5.71141 19.6495C4.3797 18.628 3.31001 17.2839 2.61766 15.7325L3.80862 14.0347L5.32034 14.8374L8.09627 14.3745L8.22954 12.457L6.47904 12.3764L6.70896 11.54L8.15177 10.3535L6.97554 9.62103L10.1265 7.81199L8.00093 6.42182L4.87788 8.30558L2.56052 7.58933C3.20796 6.08277 4.21099 4.76652 5.46237 3.74258L5.28659 5.82266L7.31984 4.2231L10.6948 5.26466L9.64015 3.97996L10.9219 3.30468L12.1788 4.63911L15.5069 5.1006L15.3428 3.48482L17.2866 4.07811L17.2442 2.98536H17.2441ZM17.2983 8.61177L13.0313 9.11286L14.3862 11.1387L14.5342 14.1606L15.9024 14.8096L16.4385 13.4795L19.3755 15.7603L18.5522 13.544L18.8526 11.2778L16.8018 10.2128L17.2984 8.61182L17.2983 8.61177ZM10.3594 8.78324L8.87843 9.77643L10.588 10.4692L11.3701 9.77643L10.3594 8.78319V8.78324ZM11.3995 15.5655L12.2754 18.0308L13.2026 16.0356L11.3995 15.5655Z" fill="currentColor"/>
</svg>
