<svg width="24" height="25" viewBox="0 0 24 25" fill="none" xmlns="http://www.w3.org/2000/svg">
<path d="M14.6589 20.247L13.1389 21.767C12.5189 22.387 11.4989 22.387 10.8789 21.767L9.35893 20.247C9.09893 19.987 8.58893 19.777 8.22893 19.777H6.07893C5.19893 19.777 4.47893 19.057 4.47893 18.177V16.027C4.47893 15.667 4.26893 15.157 4.00893 14.897L2.48893 13.377C1.86893 12.757 1.86893 11.737 2.48893 11.117L4.00893 9.59697C4.26893 9.33697 4.47893 8.82697 4.47893 8.46697V6.31697C4.47893 5.43697 5.19893 4.71697 6.07893 4.71697M9.33993 4.22597L10.8599 2.70597C11.4799 2.08597 12.4999 2.08597 13.1199 2.70597L14.6399 4.22597C14.8999 4.48597 15.4099 4.69597 15.7699 4.69597H17.9199C18.7999 4.69597 19.5199 5.41597 19.5199 6.29597V8.44597C19.5199 8.80597 19.7299 9.31597 19.9899 9.57597L21.5099 11.096C22.1299 11.716 22.1299 12.736 21.5099 13.356L19.9899 14.876C19.7299 15.136 19.5199 15.646 19.5199 16.006V18.156C19.5199 19.036 18.7999 19.756 17.9199 19.756M8.99993 15.237L14.9999 9.23697" stroke="currentColor" stroke-width="1.5" stroke-linecap="round" stroke-linejoin="round"/>
<path d="M14.4951 14.7369H14.5041M9.49512 9.73694H9.50312" stroke="currentColor" stroke-width="2" stroke-linecap="round" stroke-linejoin="round"/>
</svg>
