<svg width="20" height="20" viewBox="0 0 20 20" fill="none" xmlns="http://www.w3.org/2000/svg">
<path d="M13.783 9.78149L13.7734 9.80669C13.7764 9.79909 13.7788 9.79129 13.7818 9.78369L13.783 9.78149Z" fill="currentColor"/>
<path d="M10.0004 0C6.7048 0 4 2.696 4 5.9844C4 7.2588 4.408 8.4464 5.096 9.4192L5.0714 9.3808L8.9126 16.0204L8.932 16.0458C9.0868 16.2478 9.24 16.4106 9.4254 16.5332C9.6108 16.6558 9.8482 16.7332 10.0814 16.7098C10.5474 16.663 10.8182 16.341 11.0684 16.0018L11.084 15.9808L15.3188 8.774L15.3222 8.768C15.4236 8.585 15.497 8.4004 15.5598 8.2216C15.8502 7.51147 15.9997 6.75162 16 5.9844C16 2.696 13.296 0 10.0004 0ZM10.0004 1C12.7512 1 15 3.2436 15 5.9844C15.0002 6.62458 14.8752 7.25861 14.632 7.8508L14.627 7.8632L14.6226 7.8762C14.57 8.0276 14.5128 8.165 14.4468 8.2842L10.255 15.4174C10.0696 15.6616 9.94 15.7194 9.9816 15.715C10.003 15.713 10.0228 15.7298 9.977 15.6994C9.9332 15.6704 9.8438 15.5854 9.7378 15.4502L5.926 8.86L5.9126 8.8414C5.338 8.0294 5 7.046 5 5.9844C5 3.2438 7.2496 1 10.0004 1ZM10.0004 2.57C8.108 2.57 6.5774 4.0952 6.5774 5.9844C6.5774 7.8736 8.1082 9.3988 10.0004 9.3988C11.8926 9.3988 13.4226 7.8734 13.4226 5.9844C13.4226 4.0952 11.8926 2.57 10.0004 2.57ZM10.0004 3.57C11.3638 3.57 12.4226 4.627 12.4226 5.9844C12.4226 7.3418 11.364 8.3988 10.0004 8.3988C8.6368 8.3988 7.5774 7.3416 7.5774 5.9844C7.5774 4.627 8.637 3.57 10.0004 3.57Z" fill="currentColor"/>
<path d="M6.8012 13.8113C3.976 14.2105 2 15.1655 2 16.5713C2 18.4649 5.3016 19.9999 10 19.9999C14.6984 19.9999 18 18.4649 18 16.5713C18 15.1655 16.0242 14.2105 13.1992 13.8113L12.8078 14.4777C14.937 14.7731 16.4 15.3939 16.4 16.1143C16.4 17.1243 13.5346 17.9429 10 17.9429C6.4654 17.9429 3.6 17.1243 3.6 16.1143C3.5998 15.3963 5.0532 14.7761 7.189 14.4795C7.06 14.2567 6.9304 14.0343 6.8012 13.8113Z" fill="currentColor"/>
</svg>
