<svg width="20" height="20" viewBox="0 0 20 20" fill="none" xmlns="http://www.w3.org/2000/svg">
<path d="M15.6003 12.2999C15.892 11.5916 16.0503 10.8332 16.0503 9.99992C16.0503 9.39992 15.9587 8.82491 15.8003 8.29158C15.2587 8.41658 14.692 8.48325 14.1003 8.48325C12.8886 8.48455 11.6944 8.19452 10.6183 7.6376C9.54214 7.08068 8.61568 6.27321 7.91699 5.28325C7.16957 7.09173 5.7596 8.54642 3.97533 9.34992C3.94199 9.55825 3.94199 9.78325 3.94199 9.99992C3.94199 10.7955 4.0987 11.5833 4.40316 12.3183C4.70761 13.0534 5.15387 13.7212 5.71644 14.2838C6.85259 15.42 8.39356 16.0582 10.0003 16.0582C10.8753 16.0582 11.717 15.8666 12.4753 15.5249C12.9503 16.4332 13.167 16.8832 13.1503 16.8832C11.7837 17.3416 10.7253 17.5666 10.0003 17.5666C7.98366 17.5666 6.05866 16.7749 4.64199 15.3499C3.78032 14.4909 3.1398 13.4358 2.77533 12.2749H1.66699V8.48325H2.57533C2.85053 7.14368 3.48324 5.90359 4.40632 4.89457C5.3294 3.88556 6.50842 3.14525 7.81827 2.75221C9.12812 2.35917 10.5199 2.32806 11.846 2.66217C13.1722 2.99628 14.3831 3.68316 15.3503 4.64991C16.4005 5.69596 17.1168 7.03 17.4087 8.48325H18.3337V12.2749H18.2837L15.317 14.9999L10.9003 14.4999V13.1082H14.9253L15.6003 12.2999ZM7.72533 9.80825C7.97533 9.80825 8.21699 9.90825 8.39199 10.0916C8.56786 10.2689 8.66655 10.5085 8.66655 10.7582C8.66655 11.008 8.56786 11.2476 8.39199 11.4249C8.21699 11.5999 7.97533 11.6999 7.72533 11.6999C7.20033 11.6999 6.77533 11.2832 6.77533 10.7582C6.77533 10.2332 7.20033 9.80825 7.72533 9.80825ZM12.267 9.80825C12.792 9.80825 13.2087 10.2332 13.2087 10.7582C13.2087 11.2832 12.792 11.6999 12.267 11.6999C11.742 11.6999 11.317 11.2832 11.317 10.7582C11.317 10.5063 11.4171 10.2647 11.5952 10.0865C11.7734 9.90834 12.015 9.80825 12.267 9.80825Z" fill="currentColor"/>
</svg>
