<svg width="20" height="20" viewBox="0 0 20 20" fill="none" xmlns="http://www.w3.org/2000/svg">
<path d="M11.1668 14.515H9.07516C7.70846 14.515 6.60013 13.365 6.60013 11.9483C6.60013 11.6067 6.88346 11.3233 7.22513 11.3233C7.5668 11.3233 7.85013 11.6067 7.85013 11.9483C7.85013 12.6733 8.40016 13.265 9.07516 13.265H11.1668C11.7085 13.265 12.1585 12.7817 12.1585 12.1983C12.1585 11.4733 11.9002 11.3317 11.4752 11.1817L8.1168 9.99834C7.4668 9.77334 6.5918 9.29001 6.5918 7.79836C6.5918 6.51502 7.60013 5.48169 8.8335 5.48169H10.9252C12.2918 5.48169 13.4002 6.63169 13.4002 8.04836C13.4002 8.39001 13.1168 8.67334 12.7752 8.67334C12.4335 8.67334 12.1502 8.39001 12.1502 8.04836C12.1502 7.32336 11.6002 6.73169 10.9252 6.73169H8.8335C8.2918 6.73169 7.8418 7.21502 7.8418 7.79836C7.8418 8.52334 8.10013 8.66501 8.52516 8.81501L11.8835 9.99834C12.5335 10.2233 13.4085 10.7067 13.4085 12.1983C13.4002 13.4733 12.4002 14.515 11.1668 14.515Z" fill="currentColor"/>
<path d="M10 15.625C9.65833 15.625 9.375 15.3417 9.375 15V5C9.375 4.65833 9.65833 4.375 10 4.375C10.3417 4.375 10.625 4.65833 10.625 5V15C10.625 15.3417 10.3417 15.625 10 15.625Z" fill="currentColor"/>
<path d="M10.0003 18.9584C5.05866 18.9584 1.04199 14.9417 1.04199 10.0001C1.04199 5.05841 5.05866 1.04175 10.0003 1.04175C14.942 1.04175 18.9587 5.05841 18.9587 10.0001C18.9587 14.9417 14.942 18.9584 10.0003 18.9584ZM10.0003 2.29175C5.75033 2.29175 2.29199 5.75008 2.29199 10.0001C2.29199 14.2501 5.75033 17.7084 10.0003 17.7084C14.2503 17.7084 17.7087 14.2501 17.7087 10.0001C17.7087 5.75008 14.2503 2.29175 10.0003 2.29175Z" fill="currentColor"/>
</svg>
