<svg width="31" height="31" viewBox="0 0 31 31" fill="none" xmlns="http://www.w3.org/2000/svg">
<g clip-path="url(#clip0_3_4313)">
<path d="M27.3551 6.04207C24.3861 4.03551 20.5895 5.2278 18.8737 8.70389L14.5487 17.4753C13.2973 20.0082 14.9084 20.8933 16.7049 22.1544L20.8666 24.9664C22.2759 25.9182 24.076 25.3532 24.8889 23.7054L29.3351 14.6911C30.8287 11.662 29.9425 7.79078 27.3551 6.04207Z" fill="#EA4335"/>
<path d="M22.4613 9.67261L18.2996 6.86046C16.0022 5.36738 14.7011 5.26854 13.758 7.02373L7.61993 19.4689C5.90601 22.9426 6.92618 27.3854 9.89343 29.3875C12.4808 31.1362 15.7875 30.0987 17.2812 27.0696L23.5367 14.3838C24.3532 12.7339 23.8706 10.6243 22.4613 9.67261Z" fill="#FBBC04"/>
<path d="M23.2623 3.27511L20.3392 1.29843C17.1059 -0.886261 12.9717 0.409132 11.1055 4.19441L5.53994 15.4793C4.7179 17.1444 5.20599 19.2755 6.62818 20.2357L9.90175 22.4485C11.5183 23.542 13.5845 22.8931 14.5186 21.0005L20.8768 8.10854C22.1943 5.43832 25.1102 4.52314 27.391 6.06564L23.2623 3.27511Z" fill="#34A853"/>
<path d="M11.8962 7.42339L8.73631 5.29225C7.32706 4.34266 5.52695 4.90542 4.71408 6.55116L0.922793 14.2206C-0.94328 17.9951 0.163194 22.8244 3.39643 25.0029L5.8021 26.6248L8.71985 28.5925L9.986 29.4454C7.73813 27.6838 7.02427 24.1542 8.39861 21.3743L9.38044 19.3892L12.9751 12.1172C13.7862 10.4759 13.3037 8.37298 11.8962 7.42339Z" fill="#4285F4"/>
</g>
<defs>
<clipPath id="clip0_3_4313">
<rect width="30.0445" height="30" fill="white" transform="translate(0.0161133 0.237061)"/>
</clipPath>
</defs>
</svg>
