<svg width="130" height="130" viewBox="0 0 130 130" fill="none" xmlns="http://www.w3.org/2000/svg">
<path d="M61.6229 3.7667C63.4255 1.75621 66.5745 1.75621 68.3771 3.7667C69.9316 5.50065 72.5468 5.77551 74.4279 4.40267C76.609 2.81087 79.6892 3.4656 81.0344 5.80693C82.1945 7.82619 84.6953 8.63876 86.8207 7.68703C89.2852 6.5835 92.162 7.86434 92.9909 10.4342C93.7058 12.6505 95.9831 13.9653 98.2599 13.4762C100.9 12.9092 103.448 14.7602 103.724 17.4462C103.963 19.7627 105.917 21.5223 108.246 21.5173C110.946 21.5115 113.053 23.8517 112.765 26.5366C112.517 28.8521 114.062 30.9794 116.341 31.4587C118.983 32.0145 120.558 34.7417 119.718 37.308C118.994 39.5212 120.063 41.9234 122.193 42.8661C124.662 43.9591 125.635 46.9541 124.28 49.2896C123.111 51.3039 123.658 53.876 125.545 55.2408C127.733 56.8233 128.062 59.9551 126.251 61.9579C124.689 63.6852 124.689 66.3148 126.251 68.0421C128.062 70.0449 127.733 73.1767 125.545 74.7592C123.658 76.124 123.111 78.6961 124.28 80.7104C125.635 83.0459 124.662 86.0409 122.193 87.1339C120.063 88.0766 118.994 90.4788 119.718 92.692C120.558 95.2583 118.983 97.9855 116.341 98.5413C114.062 99.0206 112.517 101.148 112.765 103.463C113.053 106.148 110.946 108.488 108.246 108.483C105.917 108.478 103.963 110.237 103.724 112.554C103.448 115.24 100.9 117.091 98.2599 116.524C95.9831 116.035 93.7058 117.349 92.9909 119.566C92.162 122.136 89.2852 123.417 86.8207 122.313C84.6953 121.361 82.1945 122.174 81.0344 124.193C79.6892 126.534 76.609 127.189 74.4279 125.597C72.5468 124.224 69.9316 124.499 68.3771 126.233C66.5745 128.244 63.4255 128.244 61.6229 126.233C60.0684 124.499 57.4532 124.224 55.5721 125.597C53.391 127.189 50.3108 126.534 48.9656 124.193C47.8055 122.174 45.3047 121.361 43.1793 122.313C40.7148 123.417 37.838 122.136 37.0091 119.566C36.2942 117.349 34.0169 116.035 31.7401 116.524C29.1001 117.091 26.5524 115.24 26.2759 112.554C26.0374 110.237 24.0833 108.478 21.7545 108.483C19.0543 108.488 16.9471 106.148 17.2351 103.463C17.4835 101.148 15.9379 99.0206 13.6589 98.5413C11.0165 97.9855 9.442 95.2583 10.2819 92.692C11.0062 90.4788 9.93671 88.0766 7.80724 87.1339C5.33814 86.0409 4.36502 83.0459 5.72011 80.7104C6.8888 78.6961 6.34209 76.124 4.45515 74.7592C2.26725 73.1767 1.93808 70.0449 3.74915 68.0421C5.3111 66.3148 5.3111 63.6852 3.74915 61.9579C1.93808 59.9551 2.26725 56.8233 4.45515 55.2408C6.34209 53.876 6.8888 51.3039 5.72011 49.2896C4.36502 46.9541 5.33814 43.9591 7.80724 42.8661C9.93671 41.9234 11.0062 39.5212 10.2819 37.308C9.442 34.7417 11.0165 32.0145 13.6589 31.4587C15.9379 30.9794 17.4835 28.8521 17.2351 26.5366C16.9471 23.8517 19.0543 21.5115 21.7545 21.5173C24.0833 21.5223 26.0374 19.7628 26.2759 17.4462C26.5524 14.7602 29.1001 12.9092 31.7401 13.4762C34.0169 13.9653 36.2942 12.6505 37.0091 10.4342C37.838 7.86434 40.7148 6.5835 43.1793 7.68703C45.3047 8.63876 47.8055 7.82619 48.9656 5.80693C50.3107 3.4656 53.391 2.81087 55.5721 4.40267C57.4532 5.77551 60.0684 5.50065 61.6229 3.7667Z" fill="currentColor"/>
<path d="M93.0436 67.046H55.2173C54.1373 67.046 53.2607 66.1296 53.2607 65.0005C53.2607 63.8714 54.1373 62.9551 55.2173 62.9551H93.0436C94.1236 62.9551 95.0001 63.8714 95.0001 65.0005C95.0001 66.1296 94.1236 67.046 93.0436 67.046Z" fill="white"/>
<path d="M65.6519 77.9541C65.1508 77.9541 64.6502 77.7553 64.269 77.3543L53.8344 66.4455C53.0702 65.646 53.0702 64.3506 53.8344 63.5516L64.269 52.6427C65.0333 51.8437 66.2724 51.8437 67.0371 52.6427C67.8014 53.4417 67.8014 54.7371 67.0371 55.5361L57.9849 64.9998L67.0371 74.4634C67.8014 75.2624 67.8014 76.5578 67.0371 77.3568C66.6535 77.7553 66.1525 77.9541 65.6519 77.9541Z" fill="white"/>
<path d="M63.6958 95C47.874 95 35 81.5408 35 65C35 48.4592 47.874 35 63.6958 35C75.5676 35 86.0495 42.4672 90.4035 54.0257C90.7999 55.0754 90.3041 56.2619 89.3001 56.6789C88.2955 57.0884 87.1606 56.578 86.7617 55.5228C83.0025 45.5408 73.9479 39.0909 63.6958 39.0909C50.0312 39.0909 38.913 50.7149 38.913 65C38.913 79.2851 50.0312 90.9091 63.6958 90.9091C73.9479 90.9091 83.0025 84.4592 86.7617 74.4802C87.1582 73.4245 88.2931 72.9146 89.3001 73.3236C90.3041 73.7381 90.7999 74.9271 90.4035 75.9773C86.0495 87.5328 75.5676 95 63.6958 95Z" fill="white"/>
</svg>
