<svg width="80" height="27" viewBox="0 0 80 27" fill="none" xmlns="http://www.w3.org/2000/svg">
<path d="M44.04 19.1572H41.304L36.728 12.2292V19.1572H33.992V7.92523H36.728L41.304 14.8852V7.92523H44.04V19.1572ZM48.7593 7.92523V19.1572H46.0233V7.92523H48.7593ZM53.478 7.92523V19.1572H50.742V7.92523H53.478ZM62.9167 11.4772C62.7141 11.1039 62.4208 10.8212 62.0368 10.6292C61.6634 10.4266 61.2208 10.3252 60.7088 10.3252C59.8234 10.3252 59.1141 10.6186 58.5807 11.2052C58.0474 11.7812 57.7808 12.5546 57.7808 13.5252C57.7808 14.5599 58.0581 15.3706 58.6128 15.9572C59.1781 16.5332 59.9514 16.8212 60.9328 16.8212C61.6048 16.8212 62.1701 16.6506 62.6288 16.3092C63.0981 15.9679 63.4394 15.4772 63.6528 14.8372H60.1808V12.8212H66.1328V15.3652C65.9301 16.0479 65.5834 16.6826 65.0928 17.2692C64.6128 17.8559 63.9994 18.3306 63.2528 18.6932C62.5061 19.0559 61.6634 19.2372 60.7248 19.2372C59.6154 19.2372 58.6234 18.9972 57.7488 18.5172C56.8848 18.0266 56.2074 17.3492 55.7168 16.4852C55.2368 15.6212 54.9967 14.6346 54.9967 13.5252C54.9967 12.4159 55.2368 11.4292 55.7168 10.5652C56.2074 9.69056 56.8848 9.01323 57.7488 8.53323C58.6128 8.04256 59.5994 7.79723 60.7088 7.79723C62.0528 7.79723 63.1834 8.12256 64.1008 8.77323C65.0288 9.42389 65.6421 10.3252 65.9408 11.4772H62.9167ZM72.9603 19.2692C71.9043 19.2692 70.9336 19.0239 70.0483 18.5332C69.1736 18.0426 68.4749 17.3599 67.9523 16.4852C67.4402 15.5999 67.1842 14.6079 67.1842 13.5092C67.1842 12.4106 67.4402 11.4239 67.9523 10.5492C68.4749 9.67456 69.1736 8.99189 70.0483 8.50123C70.9336 8.01056 71.9043 7.76523 72.9603 7.76523C74.0163 7.76523 74.9816 8.01056 75.8563 8.50123C76.7416 8.99189 77.4349 9.67456 77.9363 10.5492C78.4483 11.4239 78.7043 12.4106 78.7043 13.5092C78.7043 14.6079 78.4483 15.5999 77.9363 16.4852C77.4243 17.3599 76.7309 18.0426 75.8563 18.5332C74.9816 19.0239 74.0163 19.2692 72.9603 19.2692ZM72.9603 16.7732C73.8563 16.7732 74.5709 16.4746 75.1042 15.8772C75.6483 15.2799 75.9203 14.4906 75.9203 13.5092C75.9203 12.5172 75.6483 11.7279 75.1042 11.1412C74.5709 10.5439 73.8563 10.2452 72.9603 10.2452C72.0536 10.2452 71.3283 10.5386 70.7843 11.1252C70.2509 11.7119 69.9843 12.5066 69.9843 13.5092C69.9843 14.5012 70.2509 15.2959 70.7843 15.8932C71.3283 16.4799 72.0536 16.7732 72.9603 16.7732Z" fill="#0300AA"/>
<g clip-path="url(#clip0_3_886)">
<path d="M9.79521 2.28797V1.14408C9.79521 0.993861 9.7659 0.845112 9.70895 0.706329C9.65199 0.567545 9.56851 0.441441 9.46327 0.335221C9.35803 0.229001 9.23309 0.144744 9.09559 0.0872577C8.95809 0.0297717 8.81071 0.000183105 8.66188 0.000183105H2.21829C2.06946 0.000183093 1.92208 0.0297718 1.78458 0.0872577C1.64708 0.144744 1.52214 0.229001 1.4169 0.335221C1.31166 0.441441 1.22818 0.567545 1.17122 0.706329C1.11427 0.845112 1.08496 0.993861 1.08496 1.14408C1.08496 1.2943 1.11427 1.44305 1.17122 1.58183C1.22818 1.72061 1.31166 1.84671 1.4169 1.95293C1.52214 2.05915 1.64708 2.14341 1.78458 2.2009C1.92208 2.25839 2.06946 2.28797 2.21829 2.28797H9.79521Z" fill="#FF6B00"/>
<path d="M27.7386 4.21346C27.5997 3.99888 27.4094 3.82325 27.1852 3.70288C26.9611 3.58252 26.7104 3.52135 26.4565 3.52506H7.52832V6.52713H10.6488C10.7435 6.52541 10.8375 6.54253 10.9256 6.5775C11.0136 6.61247 11.094 6.66462 11.1621 6.73095C11.2302 6.79728 11.2847 6.8765 11.3224 6.96409C11.3602 7.05167 11.3805 7.14591 11.3822 7.24141V7.63738C11.3788 7.83049 11.2997 8.01438 11.1622 8.14875C11.0248 8.28312 10.8402 8.35702 10.6488 8.35425H7.52832V9.27299H16.8719C17.0633 9.26952 17.2482 9.34275 17.3861 9.47664C17.524 9.61053 17.6038 9.79416 17.6078 9.98728V10.3858C17.6038 10.5789 17.524 10.7626 17.3861 10.8965C17.2482 11.0303 17.0633 11.1036 16.8719 11.1001H7.52832V14.2212V14.7984C7.52764 15.2447 7.7025 15.6731 8.01451 15.9895C8.32651 16.3059 8.75016 16.4843 9.19242 16.4857H22.0129C22.396 16.4706 22.7673 16.3474 23.0845 16.1301C23.4018 15.9128 23.6523 15.6102 23.8078 15.2564L25.8591 10.5463L26.6488 8.71915L27.0617 7.76678L27.8488 5.93965C27.9684 5.66395 28.0208 5.36336 28.0016 5.06303C27.9824 4.76271 27.8922 4.47138 27.7386 4.21346ZM12.4258 12.8392C12.4224 13.0324 12.3433 13.2162 12.2058 13.3506C12.0684 13.485 11.8838 13.5589 11.6924 13.5561H9.78473C9.59339 13.5589 9.40876 13.485 9.2713 13.3506C9.13384 13.2162 9.05477 13.0324 9.0514 12.8392V12.4433C9.05477 12.2502 9.13384 12.0663 9.2713 11.9319C9.40876 11.7975 9.59339 11.7236 9.78473 11.7264H11.6924C11.8838 11.7236 12.0684 11.7975 12.2058 11.9319C12.3433 12.0663 12.4224 12.2502 12.4258 12.4433V12.8392ZM21.9899 10.1865C19.7463 9.15135 18.6924 6.47537 20.0129 5.82578C21.1822 5.25125 21.9899 6.66947 21.9899 6.66947C21.9899 6.66947 22.795 5.25125 23.9642 5.82578C25.2847 6.47537 24.136 9.26005 21.9899 10.1865Z" fill="#0300AA"/>
<path d="M0.733345 9.27297H7.5359V11.1001H0.733345C0.638722 11.1018 0.544689 11.0847 0.456621 11.0497C0.368554 11.0148 0.28817 10.9626 0.220071 10.8963C0.151972 10.83 0.09748 10.7507 0.0597206 10.6631C0.0219611 10.5756 0.00166871 10.4813 0 10.3858V9.98726C0.00166871 9.89176 0.0219611 9.79752 0.0597206 9.70993C0.09748 9.62234 0.151972 9.54312 0.220071 9.47679C0.28817 9.41046 0.368554 9.35832 0.456621 9.32335C0.544689 9.28838 0.638722 9.27126 0.733345 9.27297Z" fill="#0300AA"/>
<path d="M6.39236 11.7263H4.48724C4.2959 11.7236 4.11128 11.7975 3.97382 11.9318C3.83636 12.0662 3.75728 12.2501 3.75391 12.4432V12.8392C3.75728 13.0323 3.83636 13.2162 3.97382 13.3505C4.11128 13.4849 4.2959 13.5588 4.48724 13.556H6.39236C6.5837 13.5588 6.76834 13.4849 6.90579 13.3505C7.04325 13.2162 7.12233 13.0323 7.12571 12.8392V12.4432C7.12233 12.2501 7.04325 12.0662 6.90579 11.9318C6.76834 11.7975 6.5837 11.7236 6.39236 11.7263Z" fill="#0300AA"/>
<path d="M5.22552 6.52972H7.53321V8.35684H5.22552C5.13089 8.35856 5.03686 8.34144 4.94879 8.30647C4.86073 8.2715 4.78036 8.21936 4.71226 8.15303C4.64416 8.0867 4.58967 8.00748 4.55191 7.91989C4.51415 7.8323 4.49386 7.73806 4.49219 7.64255V7.24401C4.49386 7.1485 4.51415 7.05426 4.55191 6.96667C4.58967 6.87908 4.64416 6.79986 4.71226 6.73353C4.78036 6.6672 4.86073 6.61506 4.94879 6.58009C5.03686 6.54512 5.13089 6.528 5.22552 6.52972Z" fill="#0300AA"/>
<path d="M26.4568 3.52506H23.0081L21.7055 6.28903C21.8123 6.40635 21.9076 6.53374 21.9901 6.66947C21.9901 6.66947 22.7953 5.25125 23.9645 5.82578C25.285 6.47537 24.1363 9.26005 21.9901 10.1865C21.3927 9.91003 20.8577 9.51278 20.4183 9.01936L16.9004 16.4857H22.0081C22.3912 16.4706 22.7624 16.3474 23.0797 16.1301C23.3969 15.9128 23.6475 15.6102 23.803 15.2564L25.8542 10.5463L26.644 8.71915L27.0568 7.76678L27.844 5.93965C27.9643 5.66436 28.0175 5.36399 27.9992 5.06366C27.981 4.76334 27.8917 4.47181 27.7388 4.21346C27.6 3.99888 27.4097 3.82325 27.1855 3.70288C26.9614 3.58252 26.7107 3.52135 26.4568 3.52506Z" fill="#001C5F"/>
<path d="M12.0438 20.2357C11.5765 20.2352 11.1196 20.3746 10.7308 20.6363C10.3421 20.898 10.039 21.2703 9.85994 21.7059C9.68088 22.1415 9.6339 22.621 9.72494 23.0836C9.81598 23.5462 10.0409 23.9711 10.3714 24.3046C10.7018 24.6381 11.1228 24.8652 11.5811 24.9571C12.0395 25.049 12.5145 25.0016 12.9461 24.8208C13.3777 24.6401 13.7465 24.3342 14.0058 23.9418C14.2651 23.5495 14.4033 23.0883 14.4028 22.6166C14.4028 21.9852 14.1542 21.3796 13.7118 20.9331C13.2694 20.4865 12.6694 20.2357 12.0438 20.2357Z" fill="#FF6B00"/>
<path d="M20.1233 20.2357C19.6561 20.2357 19.1994 20.3756 18.811 20.6376C18.4226 20.8996 18.1199 21.272 17.9412 21.7077C17.7626 22.1434 17.716 22.6228 17.8073 23.0852C17.8986 23.5476 18.1238 23.9723 18.4543 24.3056C18.7848 24.6388 19.2059 24.8656 19.6641 24.9573C20.1224 25.049 20.5973 25.0014 21.0288 24.8206C21.4602 24.6398 21.8289 24.3339 22.088 23.9416C22.3472 23.5493 22.4853 23.0882 22.4848 22.6166C22.4848 22.3038 22.4237 21.9939 22.305 21.7049C22.1863 21.4159 22.0123 21.1533 21.793 20.9321C21.5736 20.711 21.3133 20.5357 21.0268 20.4162C20.7403 20.2967 20.4333 20.2353 20.1233 20.2357Z" fill="#FF6B00"/>
<path d="M20.4381 18.3413C20.4381 18.5101 20.3717 18.6721 20.2534 18.7914C20.1351 18.9108 19.9747 18.9779 19.8074 18.9779H12.4638C12.2965 18.9779 12.136 18.9108 12.0178 18.7914C11.8995 18.6721 11.833 18.5101 11.833 18.3413C11.833 18.1724 11.8995 18.0105 12.0178 17.8911C12.136 17.7717 12.2965 17.7046 12.4638 17.7046H19.8125C19.9798 17.7046 20.1402 17.7717 20.2585 17.8911C20.3768 18.0105 20.4433 18.1724 20.4433 18.3413H20.4381Z" fill="#212B38"/>
</g>
<defs>
<clipPath id="clip0_3_886">
<rect width="28" height="25" fill="white"/>
</clipPath>
</defs>
</svg>
