<svg width="42" height="24" viewBox="0 0 42 24" fill="none" xmlns="http://www.w3.org/2000/svg">
<path d="M41.2005 11.5925C41.2024 17.9955 35.6863 23.1872 28.88 23.1889C22.0735 23.1904 16.555 18.0014 16.5532 11.5984C16.5532 11.5963 16.5532 11.5946 16.5532 11.5925C16.5514 5.18969 22.0676 -0.00220486 28.8736 -0.00390583C35.68 -0.00560681 41.1987 5.18367 41.2005 11.5867C41.2005 11.5886 41.2005 11.5905 41.2005 11.5925Z" fill="#FF9900"/>
<path d="M12.2658 -0.000552199C5.49979 0.0398786 0.0214844 5.2183 0.0214844 11.5929C0.0214844 17.9923 5.54249 23.1862 12.3452 23.1862C15.5379 23.1862 18.4481 22.0416 20.638 20.1655C20.638 20.1655 20.6376 20.1653 20.6371 20.165H20.6397C21.0881 19.7806 21.5063 19.3658 21.8908 18.9236H19.3659C19.0288 18.5404 18.7224 18.1412 18.4471 17.7293H22.8016C23.0665 17.3307 23.3062 16.9167 23.519 16.4879H17.7282C17.5308 16.0899 17.3595 15.6828 17.2132 15.2699H24.0346C24.4458 14.1143 24.6689 12.8779 24.6689 11.5928C24.6689 10.7407 24.5707 9.90997 24.3849 9.11012H16.8514C16.9447 8.69849 17.0625 8.29182 17.203 7.89223H24.027C23.8744 7.46698 23.6972 7.0526 23.4957 6.65091H17.7275C17.9356 6.23273 18.1713 5.82594 18.4346 5.43314H22.7859C22.4964 4.99913 22.1759 4.58449 21.8294 4.19169H19.4034C19.7785 3.77639 20.1914 3.3853 20.6397 3.02064C18.4496 1.14433 15.5386 -0.000552199 12.3452 -0.000552199C12.3186 -0.000552199 12.2923 -0.000683043 12.2658 -0.000552199Z" fill="#CC0000"/>
<path d="M39.9637 17.6533C40.0307 17.6533 40.096 17.6697 40.1597 17.7019C40.2237 17.734 40.2729 17.7805 40.3085 17.8408C40.3441 17.9005 40.3619 17.9634 40.3619 18.0286C40.3619 18.093 40.3442 18.1552 40.3092 18.2149C40.2743 18.2744 40.225 18.3209 40.1616 18.354C40.0989 18.3866 40.0325 18.4031 39.9636 18.4031C39.8946 18.4031 39.8284 18.3866 39.7652 18.354C39.7019 18.3208 39.653 18.2746 39.6174 18.2149C39.5823 18.1552 39.5649 18.093 39.5649 18.0286C39.5649 17.9634 39.5826 17.9005 39.6184 17.8408C39.6542 17.7805 39.7037 17.7344 39.7673 17.7019C39.8316 17.6697 39.8968 17.6533 39.9637 17.6533ZM39.9637 17.7155C39.9079 17.7155 39.8534 17.7291 39.8001 17.7562C39.7473 17.7832 39.706 17.8216 39.6762 17.8724C39.646 17.9223 39.631 17.9741 39.631 18.0286C39.631 18.0825 39.6458 18.1346 39.6748 18.184C39.7046 18.2334 39.7458 18.2721 39.7983 18.2998C39.8513 18.3274 39.9063 18.341 39.9636 18.341C40.0211 18.341 40.0762 18.3274 40.1289 18.2998C40.1815 18.2721 40.2225 18.2334 40.2519 18.184C40.281 18.1346 40.2954 18.0826 40.2954 18.0286C40.2954 17.9741 40.2807 17.9222 40.2508 17.8724C40.2211 17.8216 40.1797 17.7832 40.1264 17.7562C40.0737 17.7289 40.0195 17.7155 39.9637 17.7155ZM39.789 18.2356V17.8323H39.9367C39.9868 17.8323 40.0232 17.836 40.0458 17.8438C40.0683 17.8513 40.0862 17.864 40.0997 17.8827C40.1129 17.9011 40.1198 17.9208 40.1198 17.9417C40.1198 17.9713 40.1086 17.9969 40.0861 18.0186C40.0641 18.0404 40.0342 18.0528 39.9972 18.0554C40.0124 18.0613 40.0245 18.0688 40.0339 18.0769C40.0513 18.0926 40.0722 18.1191 40.0972 18.1567L40.1494 18.2356H40.0651L40.0273 18.1721C39.9974 18.1221 39.9733 18.091 39.9548 18.0782C39.9421 18.0691 39.9236 18.0644 39.8996 18.0644H39.8588V18.236H39.7893M39.8583 18.0086H39.9423C39.9823 18.0086 40.0095 18.0028 40.0241 17.9917C40.0388 17.9802 40.0462 17.9655 40.0462 17.9469C40.0462 17.9349 40.0428 17.9242 40.0357 17.915C40.0285 17.9055 40.0188 17.8987 40.0061 17.8938C39.9937 17.8892 39.9707 17.8866 39.937 17.8866H39.8586V18.0086" fill="#FCB340"/>
<path d="M16.4346 14.9188L16.5987 13.8694C16.509 13.8694 16.3772 13.9059 16.2606 13.9059C15.8039 13.9059 15.7468 13.6763 15.7827 13.5086L16.2328 11.398H16.9271L17.0702 10.207H16.4158L16.5491 9.48523H15.1802C15.1513 9.51245 14.4058 13.5443 14.4058 14.0355C14.4058 14.7623 14.8394 15.0858 15.4511 15.0806C15.9299 15.0769 16.303 14.9522 16.4346 14.9188Z" fill="#0300AA"/>
<path d="M16.8506 12.9183C16.8506 14.6627 18.0744 15.0771 19.1173 15.0771C20.0799 15.0771 20.5846 14.8672 20.5846 14.8672L20.8158 13.6766C20.8158 13.6766 20.0024 13.9877 19.3413 13.9877C17.9323 13.9877 18.1793 12.9993 18.1793 12.9993L20.8863 13.007C20.8863 13.007 21.0586 12.2074 21.0586 11.8815C21.0586 11.0681 20.5875 10.0695 19.1469 10.0695C17.8275 10.0697 16.8506 11.4071 16.8506 12.9183ZM19.1519 11.1748C19.8924 11.1748 19.7558 11.9578 19.7558 12.0213H18.299C18.299 11.9401 18.4366 11.1748 19.1519 11.1748Z" fill="#0300AA"/>
<path d="M27.4604 14.9184L27.6953 13.5728C27.6953 13.5728 27.0511 13.8765 26.6095 13.8765C25.6786 13.8765 25.3052 13.2079 25.3052 12.4894C25.3052 11.0322 26.106 10.2304 26.9976 10.2304C27.6663 10.2304 28.2027 10.5835 28.2027 10.5835L28.4169 9.276C28.4169 9.276 27.7835 8.84566 27.1017 8.84317C25.0509 8.83558 23.8774 10.1788 23.8774 12.5009C23.8774 14.04 24.7464 15.0874 26.3123 15.0874C26.755 15.0874 27.4604 14.9184 27.4604 14.9184Z" fill="#0300AA"/>
<path d="M9.21726 10.0885C8.31752 10.0885 7.62793 10.3605 7.62793 10.3605L7.43738 11.4239C7.43738 11.4239 8.00666 11.2063 8.86732 11.2063C9.35593 11.2063 9.71338 11.258 9.71338 11.6315C9.71338 11.8584 9.66971 11.9422 9.66971 11.9422C9.66971 11.9422 9.28416 11.9119 9.10557 11.9119C7.82459 11.9119 6.77881 12.3675 6.77881 13.7411C6.77881 14.8236 7.56089 15.0718 8.0456 15.0718C8.9715 15.0718 9.33799 14.5219 9.35913 14.5203L9.34842 14.9767H10.5038L11.0193 11.5774C11.0193 10.1348 9.68181 10.0885 9.21726 10.0885ZM9.41727 12.8488C9.44244 13.0563 9.36024 14.0376 8.56996 14.0376C8.16243 14.0376 8.05659 13.7445 8.05659 13.5716C8.05659 13.2335 8.25173 12.828 9.21309 12.828C9.43702 12.828 9.37957 12.8432 9.41727 12.8488Z" fill="#0300AA"/>
<path d="M12.2479 15.0467C12.5434 15.0467 14.2329 15.1175 14.2329 13.4773C14.2329 11.9437 12.669 12.2469 12.669 11.6306C12.669 11.3242 12.924 11.2276 13.3901 11.2276C13.5749 11.2276 14.2867 11.283 14.2867 11.283L14.4521 10.193C14.4521 10.193 13.9915 10.0961 13.2415 10.0961C12.2708 10.0961 11.2856 10.4606 11.2856 11.7078C11.2856 13.1212 12.9284 12.9792 12.9284 13.5746C12.9284 13.9719 12.4695 14.0046 12.1156 14.0046C11.5035 14.0046 10.9524 13.8069 10.9505 13.8165L10.7754 14.8953C10.8072 14.9045 11.1473 15.0467 12.2479 15.0467Z" fill="#0300AA"/>
<path d="M38.2836 9.09973L38.0464 10.7626C38.0464 10.7626 37.5523 10.1208 36.7791 10.1208C35.3244 10.1208 34.5747 11.4846 34.5747 13.0512C34.5747 14.0626 35.1094 15.0541 36.2019 15.0541C36.9878 15.0541 37.4236 14.5384 37.4236 14.5384L37.3659 14.9787H38.6424L39.6448 9.10876L38.2836 9.09973ZM37.72 12.3317C37.72 12.9837 37.3767 13.8547 36.6656 13.8547C36.1933 13.8547 35.9718 13.4817 35.9718 12.8964C35.9718 11.9393 36.4287 11.308 37.0055 11.308C37.4776 11.308 37.72 11.6129 37.72 12.3317Z" fill="#0300AA"/>
<path d="M2.11273 14.9838L2.9115 10.5521L3.02888 14.9838H3.9328L5.61922 10.5521L4.87219 14.9838H6.21548L7.24986 9.10601L5.116 9.0907L3.84671 12.6894L3.81194 9.10601H1.85639L0.807129 14.9838H2.11273Z" fill="#0300AA"/>
<path d="M22.3295 14.9918C22.7115 12.9486 22.8475 11.3351 23.9613 11.6692C24.1212 10.8784 24.5025 10.1907 24.6766 9.856C24.6766 9.856 24.6215 9.77893 24.2773 9.77893C23.6897 9.77893 22.9051 10.9008 22.9051 10.9008L23.0223 10.2072H21.8003L20.9819 14.9916L22.3295 14.9918Z" fill="#0300AA"/>
<path d="M30.2086 10.0885C29.3084 10.0885 28.6189 10.3605 28.6189 10.3605L28.4285 11.4239C28.4285 11.4239 28.998 11.2063 29.8583 11.2063C30.347 11.2063 30.7043 11.258 30.7043 11.6315C30.7043 11.8584 30.6608 11.9422 30.6608 11.9422C30.6608 11.9422 30.2754 11.9119 30.0968 11.9119C28.8157 11.9119 27.77 12.3675 27.77 13.7411C27.77 14.8236 28.552 15.0718 29.0367 15.0718C29.9623 15.0718 30.3291 14.5219 30.3501 14.5203L30.3392 14.9767H31.4949L32.0102 11.5774C32.0103 10.1348 30.6729 10.0885 30.2086 10.0885ZM30.4083 12.8488C30.4334 13.0563 30.3512 14.0376 29.561 14.0376C29.1532 14.0376 29.0475 13.7445 29.0475 13.5716C29.0475 13.2335 29.2425 12.828 30.204 12.828C30.4281 12.828 30.3708 12.8432 30.4083 12.8488Z" fill="#0300AA"/>
<path d="M33.3401 14.9919C33.5498 13.4887 33.938 11.3785 34.9717 11.6693C35.1315 10.8785 34.9774 10.8806 34.6333 10.8806C34.0452 10.8806 33.915 10.9008 33.915 10.9008L34.0324 10.2072H32.8106L31.9922 14.9917L33.3401 14.9919Z" fill="#0300AA"/>
<path d="M16.7767 14.544L16.9409 13.4948C16.8512 13.4948 16.7192 13.5309 16.6028 13.5309C16.1461 13.5309 16.0957 13.3025 16.1248 13.1335L16.4938 10.9927H17.188L17.3556 9.83209H16.701L16.8343 9.11035H15.5221C15.4932 9.13757 14.7476 13.1695 14.7476 13.6605C14.7476 14.3873 15.1814 14.711 15.7931 14.7058C16.2721 14.702 16.6451 14.5773 16.7767 14.544Z" fill="white"/>
<path d="M17.1919 12.5436C17.1919 14.288 18.4158 14.7025 19.4586 14.7025C20.421 14.7025 20.8446 14.5001 20.8446 14.5001L21.0757 13.3095C21.0757 13.3095 20.3436 13.613 19.6824 13.613C18.2734 13.613 18.5202 12.6247 18.5202 12.6247H21.1867C21.1867 12.6247 21.3589 11.8249 21.3589 11.4989C21.3589 10.6856 20.9286 9.69458 19.4879 9.69458C18.1686 9.69484 17.1919 11.0322 17.1919 12.5436ZM19.4929 10.8001C20.2334 10.8001 20.0968 11.5829 20.0968 11.6463H18.6401C18.6401 11.5654 18.7778 10.8001 19.4929 10.8001Z" fill="white"/>
<path d="M27.8019 14.5438L28.0367 13.1981C28.0367 13.1981 27.3928 13.5018 26.951 13.5018C26.0202 13.5018 25.6469 12.8331 25.6469 12.1148C25.6469 10.6576 26.4478 9.85591 27.3393 9.85591C28.0079 9.85591 28.5445 10.2091 28.5445 10.2091L28.7587 8.90154C28.7587 8.90154 27.963 8.59863 27.2809 8.59863C25.7661 8.59863 24.2925 9.83485 24.2925 12.1565C24.2925 13.6961 25.0882 14.7128 26.654 14.7128C27.0967 14.713 27.8019 14.5438 27.8019 14.5438Z" fill="white"/>
<path d="M9.55968 9.71411C8.65994 9.71411 7.97021 9.98614 7.97021 9.98614L7.7798 11.0495C7.7798 11.0495 8.34908 10.8319 9.2096 10.8319C9.69821 10.8319 10.0557 10.8836 10.0557 11.2572C10.0557 11.484 10.0119 11.5678 10.0119 11.5678C10.0119 11.5678 9.62645 11.5374 9.448 11.5374C8.3132 11.5374 7.12109 11.993 7.12109 13.3666C7.12109 14.449 7.90317 14.6973 8.38789 14.6973C9.31364 14.6973 9.71268 14.1322 9.73396 14.1305L9.6907 14.6022H10.8461L11.3615 11.2027C11.3615 9.76056 10.0242 9.71411 9.55968 9.71411ZM9.84078 12.482C9.86581 12.6896 9.70239 13.663 8.91238 13.663C8.50486 13.663 8.39887 13.3702 8.39887 13.1969C8.39887 12.8591 8.59401 12.4535 9.55551 12.4535C9.77916 12.4537 9.80308 12.4762 9.84078 12.482Z" fill="white"/>
<path d="M12.5895 14.6724C12.8851 14.6724 14.5747 14.7431 14.5747 13.103C14.5747 11.5696 13.0107 11.8725 13.0107 11.2565C13.0107 10.9498 13.2656 10.8532 13.7316 10.8532C13.9166 10.8532 14.6283 10.9086 14.6283 10.9086L14.7938 9.81864C14.7938 9.81864 14.3331 9.72168 13.5832 9.72168C12.6125 9.72168 11.6272 10.0862 11.6272 11.3334C11.6272 12.7467 13.2701 12.6048 13.2701 13.2002C13.2701 13.5975 12.8111 13.6299 12.4574 13.6299C11.8453 13.6299 11.2941 13.4323 11.2922 13.4417L11.1172 14.5206C11.1489 14.5298 11.4888 14.6724 12.5895 14.6724Z" fill="white"/>
<path d="M38.671 8.73585L38.3879 10.388C38.3879 10.388 37.8941 9.74623 37.1209 9.74623C35.9186 9.74623 34.9165 11.1099 34.9165 12.6767C34.9165 13.6882 35.451 14.6792 36.5437 14.6792C37.3296 14.6792 37.7654 14.1637 37.7654 14.1637L37.7077 14.6039H38.9839L39.9863 8.73389L38.671 8.73585ZM38.0617 11.9572C38.0617 12.6092 37.7185 13.4801 37.0071 13.4801C36.5349 13.4801 36.3136 13.1072 36.3136 12.522C36.3136 11.565 36.7705 10.9335 37.347 10.9335C37.8194 10.9334 38.0617 11.2386 38.0617 11.9572Z" fill="white"/>
<path d="M2.45507 14.6089L3.25383 10.1772L3.37108 14.6089H4.27514L5.96156 10.1772L5.21453 14.6089H6.55782L7.59234 8.73096H5.51509L4.22145 12.3374L4.15414 8.73096H2.23934L1.18994 14.6089H2.45507Z" fill="white"/>
<path d="M22.6712 14.6174C23.0531 12.5742 23.1239 10.9151 24.0353 11.2188C24.1949 10.4279 24.3488 10.122 24.523 9.78733C24.523 9.78733 24.4413 9.77124 24.27 9.77124C23.6823 9.77124 23.247 10.5265 23.247 10.5265L23.364 9.83287H22.1422L21.3237 14.6174H22.6712Z" fill="white"/>
<path d="M30.8301 9.71411C29.9303 9.71411 29.2406 9.98614 29.2406 9.98614L29.0503 11.0495C29.0503 11.0495 29.6196 10.8319 30.4801 10.8319C30.9687 10.8319 31.3259 10.8836 31.3259 11.2572C31.3259 11.484 31.2824 11.5678 31.2824 11.5678C31.2824 11.5678 30.897 11.5374 30.7184 11.5374C29.5837 11.5374 28.3916 11.993 28.3916 13.3666C28.3916 14.449 29.1735 14.6973 29.6583 14.6973C30.584 14.6973 30.983 14.1322 31.0042 14.1305L30.9612 14.6022C30.9612 14.6022 32.1162 14.6022 32.1166 14.6022L32.6319 11.2027C32.632 9.76056 31.2946 9.71411 30.8301 9.71411ZM31.1116 12.482C31.1366 12.6896 30.973 13.663 30.1827 13.663C29.7752 13.663 29.6695 13.3702 29.6695 13.1969C29.6695 12.8591 29.8647 12.4535 30.826 12.4535C31.0497 12.4537 31.0734 12.4762 31.1116 12.482Z" fill="white"/>
<path d="M33.6881 14.6174C34.0702 12.5742 34.141 10.9151 35.0522 11.2188C35.212 10.4279 35.3661 10.122 35.5401 9.78733C35.5401 9.78733 35.4584 9.77124 35.2871 9.77124C34.6994 9.77124 34.2641 10.5265 34.2641 10.5265L34.3811 9.83287H33.1593L32.3408 14.6174H33.6881Z" fill="white"/>
<path d="M39.9581 13.8787C40.0247 13.8787 40.0904 13.8948 40.1537 13.9275C40.2175 13.9591 40.2672 14.0057 40.3028 14.066C40.3385 14.126 40.356 14.1884 40.356 14.2537C40.356 14.3182 40.3385 14.3804 40.3033 14.44C40.2684 14.4995 40.2193 14.5462 40.156 14.5791C40.0929 14.6118 40.0267 14.6283 39.958 14.6283C39.8887 14.6283 39.8225 14.6118 39.7592 14.5791C39.6961 14.546 39.6471 14.4995 39.6121 14.44C39.5765 14.3804 39.5591 14.3182 39.5591 14.2537C39.5591 14.1884 39.5767 14.126 39.6125 14.066C39.6484 14.0057 39.6982 13.9594 39.7617 13.9275C39.8258 13.8948 39.8915 13.8787 39.9581 13.8787ZM39.9581 13.9404C39.9023 13.9404 39.8478 13.954 39.7946 13.9814C39.7414 14.0081 39.7001 14.0467 39.6702 14.0972C39.6404 14.147 39.6254 14.1992 39.6254 14.2534C39.6254 14.3076 39.6399 14.3594 39.669 14.4088C39.6986 14.4582 39.7398 14.4969 39.7929 14.5248C39.8455 14.552 39.9004 14.5657 39.9581 14.5657C40.0154 14.5657 40.0708 14.552 40.1234 14.5248C40.1759 14.4969 40.2171 14.4582 40.2463 14.4088C40.2757 14.359 40.29 14.3076 40.29 14.2534C40.29 14.1992 40.2751 14.147 40.2453 14.0972C40.2157 14.0467 40.1744 14.0081 40.121 13.9814C40.0681 13.9542 40.014 13.9404 39.9581 13.9404ZM39.7836 14.4607V14.0573H39.9311C39.9813 14.0573 40.0181 14.0611 40.0403 14.0688C40.0629 14.076 40.0805 14.0889 40.0943 14.1076C40.1078 14.1262 40.1146 14.1457 40.1146 14.1667C40.1146 14.1961 40.1032 14.2219 40.0807 14.2436C40.0587 14.2653 40.0291 14.2779 39.9921 14.2802C40.0068 14.2862 40.019 14.2934 40.0285 14.3016C40.0456 14.3175 40.0667 14.3442 40.0918 14.3815L40.1442 14.4605H40.0595L40.0218 14.3971C39.9918 14.347 39.9677 14.3158 39.9494 14.3031C39.9367 14.2938 39.9182 14.2893 39.8939 14.2893H39.8534V14.4608L39.7836 14.4607ZM39.8528 14.2336H39.9368C39.977 14.2336 40.0042 14.228 40.0186 14.2168C40.0332 14.2058 40.0409 14.1907 40.0409 14.172C40.0409 14.1601 40.0374 14.1494 40.0304 14.1404C40.0234 14.1307 40.0135 14.1237 40.0008 14.1189C39.9882 14.1143 39.9655 14.112 39.9316 14.112H39.853V14.2336" fill="white"/>
</svg>
