<svg width="67" height="67" viewBox="0 0 67 67" fill="none" xmlns="http://www.w3.org/2000/svg">
<ellipse cx="33.4785" cy="33.2371" rx="33.4785" ry="33" fill="#F5F5F5"/>
<path d="M52.754 33.6646C52.7558 39.9744 47.4558 45.0904 40.9161 45.0921C34.3763 45.0936 29.074 39.9802 29.0723 33.6704C29.0723 33.6684 29.0723 33.6667 29.0723 33.6646C29.0705 27.355 34.3706 22.2387 40.91 22.2371C47.4498 22.2354 52.7522 27.3491 52.754 33.6588C52.754 33.6608 52.754 33.6626 52.754 33.6646Z" fill="#FF9900"/>
<path d="M24.9531 22.2403C18.4522 22.2801 13.1885 27.3831 13.1885 33.6649C13.1885 39.9712 18.4932 45.0894 25.0294 45.0894C28.097 45.0894 30.8933 43.9614 32.9974 42.1127C32.9974 42.1127 32.997 42.1125 32.9964 42.1122H32.999C33.4298 41.7334 33.8317 41.3246 34.201 40.8888H31.7751C31.4512 40.5113 31.1568 40.1179 30.8923 39.712H35.0762C35.3307 39.3191 35.5611 38.9112 35.7655 38.4886H30.2016C30.0119 38.0964 29.8473 37.6953 29.7067 37.2883H36.2609C36.656 36.1496 36.8703 34.9312 36.8703 33.6648C36.8703 32.8251 36.776 32.0065 36.5974 31.2183H29.3591C29.4488 30.8127 29.562 30.4119 29.6969 30.0181H36.2536C36.107 29.5991 35.9367 29.1907 35.7431 28.7949H30.2009C30.4008 28.3828 30.6273 27.9819 30.8803 27.5949H35.0611C34.7829 27.1672 34.475 26.7586 34.1421 26.3715H31.8111C32.1715 25.9622 32.5683 25.5768 32.999 25.2175C30.8947 23.3685 28.0977 22.2403 25.0294 22.2403C25.0039 22.2403 24.9786 22.2402 24.9531 22.2403Z" fill="#CC0000"/>
<path d="M51.5662 39.637C51.6307 39.637 51.6933 39.6531 51.7545 39.6848C51.816 39.7165 51.8633 39.7623 51.8975 39.8217C51.9317 39.8805 51.9488 39.9425 51.9488 40.0068C51.9488 40.0702 51.9319 40.1316 51.8982 40.1904C51.8647 40.249 51.8173 40.2948 51.7564 40.3274C51.6961 40.3595 51.6324 40.3758 51.5661 40.3758C51.4998 40.3758 51.4362 40.3595 51.3755 40.3274C51.3147 40.2947 51.2677 40.2492 51.2335 40.1904C51.1998 40.1316 51.1831 40.0702 51.1831 40.0068C51.1831 39.9425 51.2001 39.8805 51.2344 39.8217C51.2689 39.7623 51.3165 39.7169 51.3775 39.6848C51.4393 39.6531 51.502 39.637 51.5662 39.637ZM51.5662 39.6982C51.5127 39.6982 51.4603 39.7116 51.4091 39.7383C51.3583 39.765 51.3186 39.8028 51.29 39.8528C51.261 39.9021 51.2466 39.9531 51.2466 40.0068C51.2466 40.0599 51.2607 40.1112 51.2887 40.1599C51.3173 40.2085 51.3568 40.2467 51.4073 40.274C51.4583 40.3013 51.5111 40.3147 51.5661 40.3147C51.6214 40.3147 51.6744 40.3013 51.725 40.274C51.7755 40.2467 51.8149 40.2085 51.8431 40.1599C51.8711 40.1112 51.885 40.06 51.885 40.0068C51.885 39.9531 51.8708 39.9019 51.8421 39.8528C51.8136 39.8028 51.7738 39.765 51.7226 39.7383C51.6719 39.7115 51.6198 39.6982 51.5662 39.6982ZM51.3984 40.2107V39.8134H51.5403C51.5884 39.8134 51.6234 39.817 51.6451 39.8247C51.6667 39.832 51.684 39.8446 51.6969 39.863C51.7096 39.8812 51.7162 39.9005 51.7162 39.9211C51.7162 39.9503 51.7055 39.9756 51.6838 39.997C51.6627 40.0184 51.634 40.0306 51.5985 40.0332C51.613 40.039 51.6246 40.0463 51.6337 40.0543C51.6504 40.0698 51.6705 40.096 51.6945 40.133L51.7446 40.2107H51.6637L51.6273 40.1482C51.5986 40.0989 51.5755 40.0683 51.5577 40.0556C51.5455 40.0467 51.5278 40.0421 51.5046 40.0421H51.4655V40.2111H51.3987M51.4649 39.987H51.5457C51.5842 39.987 51.6102 39.9814 51.6242 39.9704C51.6384 39.9591 51.6455 39.9446 51.6455 39.9263C51.6455 39.9144 51.6423 39.9039 51.6355 39.8948C51.6285 39.8854 51.6192 39.8787 51.607 39.874C51.5951 39.8694 51.5729 39.8669 51.5406 39.8669H51.4652V39.987" fill="#FCB340"/>
<path d="M28.9586 36.9423L29.1163 35.9082C29.0301 35.9082 28.9035 35.9442 28.7915 35.9442C28.3526 35.9442 28.2978 35.7179 28.3323 35.5526L28.7647 33.4728H29.4319L29.5694 32.2991H28.9406L29.0686 31.5879H27.7534C27.7256 31.6147 27.0093 35.5878 27.0093 36.0719C27.0093 36.7881 27.426 37.1069 28.0137 37.1018C28.4737 37.0981 28.8322 36.9752 28.9586 36.9423Z" fill="#0300AA"/>
<path d="M29.3579 34.9712C29.3579 36.6902 30.5338 37.0986 31.5358 37.0986C32.4607 37.0986 32.9457 36.8917 32.9457 36.8917L33.1678 35.7184C33.1678 35.7184 32.3863 36.025 31.7511 36.025C30.3972 36.025 30.6345 35.051 30.6345 35.051L33.2355 35.0586C33.2355 35.0586 33.4011 34.2707 33.4011 33.9495C33.4011 33.1479 32.9485 32.1638 31.5643 32.1638C30.2966 32.1641 29.3579 33.482 29.3579 34.9712ZM31.5691 33.2531C32.2806 33.2531 32.1493 34.0247 32.1493 34.0872H30.7496C30.7496 34.0073 30.8818 33.2531 31.5691 33.2531Z" fill="#0300AA"/>
<path d="M39.552 36.9421L39.7777 35.6161C39.7777 35.6161 39.1587 35.9154 38.7344 35.9154C37.84 35.9154 37.4812 35.2565 37.4812 34.5485C37.4812 33.1125 38.2506 32.3224 39.1073 32.3224C39.7498 32.3224 40.2652 32.6704 40.2652 32.6704L40.471 31.3819C40.471 31.3819 39.8624 30.9578 39.2074 30.9554C37.2369 30.9479 36.1094 32.2716 36.1094 34.5598C36.1094 36.0765 36.9443 37.1087 38.4488 37.1087C38.8742 37.1087 39.552 36.9421 39.552 36.9421Z" fill="#0300AA"/>
<path d="M22.0241 32.1826C21.1596 32.1826 20.497 32.4507 20.497 32.4507L20.3139 33.4986C20.3139 33.4986 20.8609 33.2841 21.6878 33.2841C22.1573 33.2841 22.5008 33.3351 22.5008 33.7032C22.5008 33.9268 22.4588 34.0093 22.4588 34.0093C22.4588 34.0093 22.0884 33.9795 21.9168 33.9795C20.686 33.9795 19.6812 34.4285 19.6812 35.7821C19.6812 36.8488 20.4326 37.0934 20.8983 37.0934C21.7879 37.0934 22.1401 36.5514 22.1604 36.5499L22.1501 36.9996H23.2602L23.7555 33.6498C23.7555 32.2283 22.4704 32.1826 22.0241 32.1826ZM22.2162 34.9027C22.2404 35.1072 22.1615 36.0742 21.4021 36.0742C21.0106 36.0742 20.9089 35.7854 20.9089 35.615C20.9089 35.2818 21.0964 34.8822 22.0201 34.8822C22.2352 34.8822 22.18 34.8972 22.2162 34.9027Z" fill="#0300AA"/>
<path d="M24.9353 37.0687C25.2193 37.0687 26.8426 37.1385 26.8426 35.5222C26.8426 34.0109 25.34 34.3097 25.34 33.7024C25.34 33.4004 25.5849 33.3052 26.0328 33.3052C26.2104 33.3052 26.8943 33.3598 26.8943 33.3598L27.0532 32.2857C27.0532 32.2857 26.6106 32.1902 25.89 32.1902C24.9574 32.1902 24.0107 32.5494 24.0107 33.7785C24.0107 35.1712 25.5892 35.0313 25.5892 35.618C25.5892 36.0096 25.1482 36.0418 24.8082 36.0418C24.2201 36.0418 23.6906 35.847 23.6888 35.8564L23.5205 36.9195C23.5511 36.9286 23.8779 37.0687 24.9353 37.0687Z" fill="#0300AA"/>
<path d="M49.9513 31.2083L49.7234 32.8469C49.7234 32.8469 49.2486 32.2145 48.5057 32.2145C47.108 32.2145 46.3877 33.5584 46.3877 35.1022C46.3877 36.0989 46.9014 37.0759 47.9511 37.0759C48.7063 37.0759 49.125 36.5677 49.125 36.5677L49.0695 37.0016H50.296L51.2592 31.2171L49.9513 31.2083ZM49.4098 34.3932C49.4098 35.0357 49.08 35.894 48.3967 35.894C47.9428 35.894 47.7301 35.5264 47.7301 34.9497C47.7301 34.0065 48.1691 33.3844 48.7233 33.3844C49.1768 33.3844 49.4098 33.6848 49.4098 34.3932Z" fill="#0300AA"/>
<path d="M15.1978 37.0065L15.9653 32.6393L16.0781 37.0065H16.9466L18.5669 32.6393L17.8492 37.0065H19.1398L20.1337 31.2143L18.0834 31.1992L16.8639 34.7455L16.8305 31.2143H14.9515L13.9434 37.0065H15.1978Z" fill="#0300AA"/>
<path d="M34.6224 37.0146C34.9894 35.0012 35.1201 33.4112 36.1903 33.7405C36.344 32.9612 36.7103 32.2835 36.8776 31.9536C36.8776 31.9536 36.8247 31.8777 36.4939 31.8777C35.9293 31.8777 35.1754 32.9832 35.1754 32.9832L35.2881 32.2997H34.114L33.3276 37.0145L34.6224 37.0146Z" fill="#0300AA"/>
<path d="M42.1927 32.1826C41.3278 32.1826 40.6652 32.4507 40.6652 32.4507L40.4822 33.4986C40.4822 33.4986 41.0295 33.2841 41.856 33.2841C42.3256 33.2841 42.669 33.3351 42.669 33.7032C42.669 33.9268 42.6271 34.0093 42.6271 34.0093C42.6271 34.0093 42.2568 33.9795 42.0852 33.9795C40.8543 33.9795 39.8496 34.4285 39.8496 35.7821C39.8496 36.8488 40.6009 37.0934 41.0666 37.0934C41.956 37.0934 42.3084 36.5514 42.3286 36.5499L42.3182 36.9996H43.4285L43.9237 33.6498C43.9238 32.2283 42.6388 32.1826 42.1927 32.1826ZM42.3846 34.9027C42.4086 35.1072 42.3296 36.0742 41.5705 36.0742C41.1786 36.0742 41.0771 35.7854 41.0771 35.615C41.0771 35.2818 41.2644 34.8822 42.1883 34.8822C42.4035 34.8822 42.3485 34.8972 42.3846 34.9027Z" fill="#0300AA"/>
<path d="M45.2018 37.0146C45.4033 35.5333 45.7763 33.4538 46.7695 33.7405C46.9231 32.9611 46.775 32.9632 46.4444 32.9632C45.8794 32.9632 45.7543 32.9831 45.7543 32.9831L45.8671 32.2996H44.6931L43.9067 37.0145L45.2018 37.0146Z" fill="#0300AA"/>
<path d="M29.287 36.5733L29.4449 35.5394C29.3587 35.5394 29.2318 35.5749 29.12 35.5749C28.6811 35.5749 28.6327 35.3498 28.6607 35.1834L29.0152 33.0737H29.6822L29.8432 31.93H29.2143L29.3424 31.2188H28.0816C28.0538 31.2456 27.3374 35.2188 27.3374 35.7026C27.3374 36.4188 27.7542 36.7378 28.342 36.7327C28.8022 36.7289 29.1606 36.6061 29.287 36.5733Z" fill="white"/>
<path d="M29.686 34.6019C29.686 36.321 30.862 36.7294 31.8639 36.7294C32.7887 36.7294 33.1956 36.53 33.1956 36.53L33.4177 35.3568C33.4177 35.3568 32.7143 35.6558 32.0789 35.6558C30.7252 35.6558 30.9623 34.6819 30.9623 34.6819H33.5244C33.5244 34.6819 33.6898 33.8937 33.6898 33.5725C33.6898 32.771 33.2763 31.7944 31.8921 31.7944C30.6244 31.7947 29.686 33.1126 29.686 34.6019ZM31.8969 32.8838C32.6084 32.8838 32.4772 33.6553 32.4772 33.7177H31.0775C31.0775 33.638 31.2098 32.8838 31.8969 32.8838Z" fill="white"/>
<path d="M39.8807 36.5729L40.1063 35.2468C40.1063 35.2468 39.4877 35.5461 39.0631 35.5461C38.1688 35.5461 37.8101 34.8872 37.8101 34.1793C37.8101 32.7433 38.5796 31.9533 39.4362 31.9533C40.0786 31.9533 40.5942 32.3013 40.5942 32.3013L40.8 31.0128C40.8 31.0128 40.0355 30.7144 39.3801 30.7144C37.9247 30.7144 36.5088 31.9326 36.5088 34.2205C36.5088 35.7376 37.2733 36.7395 38.7778 36.7395C39.2032 36.7397 39.8807 36.5729 39.8807 36.5729Z" fill="white"/>
<path d="M22.3533 31.8135C21.4888 31.8135 20.8261 32.0815 20.8261 32.0815L20.6432 33.1294C20.6432 33.1294 21.1901 32.915 22.0169 32.915C22.4864 32.915 22.8299 32.9659 22.8299 33.3341C22.8299 33.5576 22.7878 33.6402 22.7878 33.6402C22.7878 33.6402 22.4175 33.6102 22.246 33.6102C21.1557 33.6102 20.0103 34.0592 20.0103 35.4128C20.0103 36.4794 20.7617 36.7241 21.2274 36.7241C22.1169 36.7241 22.5003 36.1672 22.5208 36.1655L22.4792 36.6304H23.5893L24.0846 33.2804C24.0846 31.8592 22.7997 31.8135 22.3533 31.8135ZM22.6234 34.541C22.6474 34.7457 22.4904 35.7048 21.7314 35.7048C21.3398 35.7048 21.238 35.4163 21.238 35.2456C21.238 34.9126 21.4255 34.5129 22.3493 34.5129C22.5642 34.5132 22.5872 34.5354 22.6234 34.541Z" fill="white"/>
<path d="M25.2643 36.6997C25.5483 36.6997 27.1717 36.7693 27.1717 35.1531C27.1717 33.642 25.6689 33.9405 25.6689 33.3335C25.6689 33.0313 25.9139 32.9361 26.3616 32.9361C26.5393 32.9361 27.2231 32.9906 27.2231 32.9906L27.3822 31.9166C27.3822 31.9166 26.9396 31.821 26.219 31.821C25.2863 31.821 24.3397 32.1803 24.3397 33.4093C24.3397 34.802 25.9182 34.6622 25.9182 35.2489C25.9182 35.6405 25.4772 35.6723 25.1373 35.6723C24.5492 35.6723 24.0196 35.4776 24.0177 35.4869L23.8496 36.5501C23.8801 36.5592 24.2067 36.6997 25.2643 36.6997Z" fill="white"/>
<path d="M50.3237 30.8496L50.0518 32.4777C50.0518 32.4777 49.5772 31.8453 48.8343 31.8453C47.6792 31.8453 46.7163 33.1891 46.7163 34.7331C46.7163 35.7298 47.2299 36.7064 48.2797 36.7064C49.0349 36.7064 49.4536 36.1984 49.4536 36.1984L49.3981 36.6322H50.6244L51.5875 30.8477L50.3237 30.8496ZM49.7382 34.0241C49.7382 34.6666 49.4086 35.5248 48.725 35.5248C48.2713 35.5248 48.0587 35.1573 48.0587 34.5806C48.0587 33.6375 48.4977 33.0152 49.0516 33.0152C49.5055 33.0151 49.7382 33.3159 49.7382 34.0241Z" fill="white"/>
<path d="M15.5266 36.637L16.2941 32.2699L16.4067 36.637H17.2754L18.8957 32.2699L18.178 36.637H19.4686L20.4626 30.8447H18.4668L17.2238 34.3987L17.1591 30.8447H15.3193L14.311 36.637H15.5266Z" fill="white"/>
<path d="M34.9509 36.6455C35.3179 34.632 35.3859 32.9971 36.2616 33.2963C36.4149 32.517 36.5629 32.2156 36.7302 31.8857C36.7302 31.8857 36.6517 31.8699 36.4871 31.8699C35.9225 31.8699 35.5042 32.6141 35.5042 32.6141L35.6166 31.9306H34.4427L33.6562 36.6455H34.9509Z" fill="white"/>
<path d="M42.7897 31.8135C41.9252 31.8135 41.2625 32.0815 41.2625 32.0815L41.0797 33.1294C41.0797 33.1294 41.6267 32.915 42.4535 32.915C42.9229 32.915 43.2661 32.9659 43.2661 33.3341C43.2661 33.5576 43.2243 33.6402 43.2243 33.6402C43.2243 33.6402 42.854 33.6102 42.6824 33.6102C41.5922 33.6102 40.4468 34.0592 40.4468 35.4128C40.4468 36.4794 41.1981 36.7241 41.6638 36.7241C42.5533 36.7241 42.9367 36.1672 42.957 36.1655L42.9157 36.6304C42.9157 36.6304 44.0254 36.6304 44.0258 36.6304L44.521 33.2804C44.5211 31.8592 43.236 31.8135 42.7897 31.8135ZM43.0602 34.541C43.0842 34.7457 42.9271 35.7048 42.1678 35.7048C41.7762 35.7048 41.6746 35.4163 41.6746 35.2456C41.6746 34.9126 41.8621 34.5129 42.7858 34.5129C43.0007 34.5132 43.0236 34.5354 43.0602 34.541Z" fill="white"/>
<path d="M45.5358 36.6455C45.9029 34.632 45.9709 32.9971 46.8463 33.2963C46.9999 32.517 47.148 32.2156 47.3151 31.8857C47.3151 31.8857 47.2367 31.8699 47.072 31.8699C46.5074 31.8699 46.0891 32.6141 46.0891 32.6141L46.2015 31.9306H45.0277L44.2412 36.6455H45.5358Z" fill="white"/>
<path d="M51.5602 35.9177C51.6242 35.9177 51.6873 35.9336 51.7481 35.9658C51.8094 35.997 51.8571 36.0429 51.8913 36.1024C51.9257 36.1614 51.9425 36.2229 51.9425 36.2873C51.9425 36.3508 51.9257 36.4122 51.8919 36.4709C51.8583 36.5295 51.8111 36.5756 51.7503 36.6079C51.6897 36.6402 51.626 36.6564 51.56 36.6564C51.4935 36.6564 51.4299 36.6402 51.3691 36.6079C51.3084 36.5753 51.2614 36.5295 51.2277 36.4709C51.1935 36.4122 51.1768 36.3508 51.1768 36.2873C51.1768 36.2229 51.1937 36.1614 51.2281 36.1024C51.2626 36.0429 51.3104 35.9973 51.3715 35.9658C51.4331 35.9336 51.4962 35.9177 51.5602 35.9177ZM51.5602 35.9786C51.5066 35.9786 51.4542 35.992 51.403 36.0189C51.352 36.0452 51.3123 36.0833 51.2835 36.1331C51.2549 36.1822 51.2405 36.2336 51.2405 36.287C51.2405 36.3404 51.2544 36.3914 51.2823 36.4402C51.3108 36.4888 51.3504 36.527 51.4014 36.5544C51.4519 36.5812 51.5047 36.5948 51.5602 36.5948C51.6152 36.5948 51.6684 36.5812 51.7189 36.5544C51.7694 36.527 51.809 36.4888 51.8371 36.4402C51.8653 36.3911 51.879 36.3404 51.879 36.287C51.879 36.2336 51.8647 36.1822 51.8361 36.1331C51.8077 36.0833 51.768 36.0452 51.7167 36.0189C51.6659 35.9921 51.6139 35.9786 51.5602 35.9786ZM51.3925 36.4912V36.0937H51.5342C51.5825 36.0937 51.6178 36.0975 51.6391 36.1051C51.6608 36.1122 51.6778 36.1249 51.691 36.1434C51.704 36.1617 51.7105 36.1809 51.7105 36.2015C51.7105 36.2305 51.6995 36.2559 51.6779 36.2773C51.6568 36.2987 51.6283 36.3111 51.5928 36.3134C51.6069 36.3194 51.6187 36.3265 51.6278 36.3345C51.6442 36.3502 51.6645 36.3765 51.6886 36.4132L51.739 36.4911H51.6576L51.6214 36.4286C51.5925 36.3792 51.5694 36.3485 51.5517 36.336C51.5396 36.3268 51.5218 36.3223 51.4984 36.3223H51.4595V36.4914L51.3925 36.4912ZM51.459 36.2675H51.5397C51.5783 36.2675 51.6044 36.262 51.6183 36.2509C51.6323 36.2401 51.6397 36.2252 51.6397 36.2068C51.6397 36.1951 51.6363 36.1845 51.6297 36.1756C51.6228 36.1661 51.6133 36.1592 51.6012 36.1545C51.589 36.1499 51.5672 36.1476 51.5346 36.1476H51.4591V36.2675" fill="white"/>
</svg>
