<svg width="20" height="20" viewBox="0 0 20 20" fill="none" xmlns="http://www.w3.org/2000/svg">
<path d="M3.33333 10.4808V11.9875C3.33333 12.1153 3.38667 12.2328 3.49333 12.34C3.60056 12.4467 3.71806 12.5 3.84583 12.5H16.1542C16.2819 12.5 16.3994 12.4467 16.5067 12.34C16.6133 12.2328 16.6667 12.1153 16.6667 11.9875V10.4808H3.33333ZM3.84583 2.5H16.1542C16.5264 2.5 16.8439 2.63111 17.1067 2.89333C17.3689 3.15556 17.5 3.47306 17.5 3.84583V11.9875C17.5 12.3597 17.3689 12.6772 17.1067 12.94C16.8444 13.2022 16.5269 13.3333 16.1542 13.3333H12.4358V16.8917L10 15.6725L7.56417 16.89V13.3333H3.84583C3.47361 13.3333 3.15611 13.2022 2.89333 12.94C2.63111 12.6778 2.5 12.3603 2.5 11.9875V3.84583C2.5 3.47361 2.63111 3.15611 2.89333 2.89333C3.15556 2.63111 3.47306 2.5 3.84583 2.5ZM3.33333 8.68583H16.6667V3.84583C16.6667 3.71806 16.6133 3.60056 16.5067 3.49333C16.3994 3.38667 16.2819 3.33333 16.1542 3.33333H3.84583C3.71806 3.33333 3.60056 3.38667 3.49333 3.49333C3.38667 3.60056 3.33333 3.71806 3.33333 3.84583V8.68583ZM3.33333 11.9875V3.33333H3.84583C3.71806 3.33333 3.60056 3.38667 3.49333 3.49333C3.38667 3.60056 3.33333 3.71806 3.33333 3.84583V11.9875C3.33333 12.1153 3.38667 12.2328 3.49333 12.34C3.60056 12.4467 3.71806 12.5 3.84583 12.5H3.33333V11.9875Z" fill="currentColor"/>
</svg>
