<svg width="40" height="40" viewBox="0 0 40 40" fill="none" xmlns="http://www.w3.org/2000/svg">
<circle cx="20" cy="20" r="20" fill="#FF6B00" fill-opacity="0.2"/>
<path d="M20.8152 29.6969C20.7499 29.6969 20.6837 29.6816 20.6242 29.6509L11.1223 24.8033C10.9859 24.7338 10.8999 24.5957 10.8999 24.4454V15.3562C10.8999 15.2164 10.9743 15.0864 11.0959 15.0128C11.2174 14.9393 11.3704 14.9328 11.4977 14.9951L20.9996 19.6406C21.1393 19.7093 21.2278 19.8491 21.2278 20.0018V29.293C21.2278 29.4343 21.1526 29.5652 21.0285 29.6387C20.964 29.6775 20.8896 29.6969 20.8152 29.6969ZM11.7267 24.2006L20.4018 28.6264V20.2514L11.7267 16.0098V24.2006Z" fill="#FF6B00"/>
<path d="M20.828 29.6967C20.7535 29.6967 20.6791 29.6773 20.6138 29.6385C20.4906 29.565 20.4146 29.4341 20.4146 29.2927V20.0015C20.4146 19.8488 20.503 19.7091 20.6428 19.6404L30.1446 14.9948C30.2712 14.9318 30.4249 14.9382 30.5465 15.0126C30.6689 15.0861 30.7433 15.2162 30.7433 15.3559V24.4451C30.7433 24.5954 30.6573 24.7336 30.5209 24.803L21.019 29.6506C20.9594 29.6813 20.8933 29.6967 20.828 29.6967ZM21.2414 20.2512V28.6262L29.9164 24.2003V16.0096L21.2414 20.2512ZM30.3299 24.4451H30.3381H30.3299Z" fill="#FF6B00"/>
<path d="M11.3132 15.7601C11.1611 15.7601 11.0155 15.6785 10.9428 15.5371C10.8403 15.3376 10.9238 15.0952 11.128 14.995L20.6431 10.3494C20.7597 10.2929 20.8969 10.2929 21.0127 10.3494L30.5146 14.995C30.7188 15.0952 30.8015 15.3376 30.6998 15.5371C30.5973 15.7367 30.3501 15.8167 30.145 15.7181L20.8283 11.1622L11.4984 15.7173C11.4389 15.7464 11.376 15.7601 11.3132 15.7601Z" fill="#FF6B00"/>
<path d="M25.7827 22.4254C25.5545 22.4254 25.3693 22.2445 25.3693 22.0215V17.8275L16.0956 13.2934C15.8914 13.1941 15.8087 12.9509 15.9112 12.7513C16.0137 12.5518 16.2618 12.4718 16.466 12.5703L25.9679 17.2159C26.1076 17.2854 26.1961 17.4252 26.1961 17.5779V22.0215C26.1961 22.2445 26.0109 22.4254 25.7827 22.4254Z" fill="#FF6B00"/>
</svg>
