<svg width="20" height="20" viewBox="0 0 20 20" fill="none" xmlns="http://www.w3.org/2000/svg">
<path d="M10.1359 0.250051C4.65243 0.175989 0.175867 4.65255 0.249929 10.136C0.323054 15.3949 4.60509 19.6769 9.86399 19.7501C15.3484 19.8251 19.824 15.3485 19.749 9.86505C19.6768 4.60521 15.3948 0.323176 10.1359 0.250051ZM16.0618 15.5899C16.0431 15.6101 16.0202 15.6259 15.9948 15.6363C15.9693 15.6466 15.9418 15.6513 15.9144 15.6498C15.8869 15.6484 15.8601 15.641 15.8358 15.628C15.8116 15.6151 15.7905 15.5969 15.774 15.5749C15.3547 15.0263 14.8413 14.5567 14.2576 14.1879C13.0641 13.4219 11.552 13.0001 9.99993 13.0001C8.4479 13.0001 6.93571 13.4219 5.74227 14.1879C5.15862 14.5565 4.64516 15.026 4.22587 15.5744C4.20939 15.5965 4.18828 15.6146 4.16402 15.6275C4.13976 15.6405 4.11294 15.6479 4.08548 15.6494C4.05801 15.6508 4.03057 15.6462 4.00509 15.6358C3.97961 15.6255 3.95673 15.6096 3.93805 15.5894C2.56259 14.1046 1.78344 12.1644 1.74993 10.1407C1.67352 5.57927 5.41649 1.7613 9.97977 1.75005C14.5431 1.7388 18.2499 5.44427 18.2499 10.0001C18.2515 12.0726 17.4699 14.0692 16.0618 15.5899Z" fill="#474747" fill-opacity="0.8"/>
</svg>
