<svg width="128" height="128" viewBox="0 0 128 128" fill="none" xmlns="http://www.w3.org/2000/svg">
<rect width="128" height="128" rx="20" fill="url(#paint0_linear_414_138)"/>
<g clip-path="url(#clip0_414_138)" filter="url(#filter0_i_414_138)">
<path d="M48.9821 28.053V24.0265C48.9821 23.4977 48.8774 22.9741 48.674 22.4856C48.4706 21.9971 48.1724 21.5532 47.7966 21.1793C47.4207 20.8054 46.9745 20.5089 46.4834 20.3065C45.9923 20.1042 45.466 20 44.9345 20H21.9216C21.3901 20 20.8637 20.1042 20.3727 20.3065C19.8816 20.5089 19.4354 20.8054 19.0595 21.1793C18.6837 21.5532 18.3855 21.9971 18.1821 22.4856C17.9787 22.9741 17.874 23.4977 17.874 24.0265C17.874 24.5553 17.9787 25.0789 18.1821 25.5674C18.3855 26.0559 18.6837 26.4998 19.0595 26.8737C19.4354 27.2476 19.8816 27.5442 20.3727 27.7465C20.8637 27.9489 21.3901 28.053 21.9216 28.053H48.9821Z" fill="#FF6B00"/>
<path d="M113.066 34.8306C112.57 34.0753 111.891 33.4571 111.09 33.0334C110.289 32.6097 109.394 32.3944 108.487 32.4075H40.8867V42.9747H52.0314C52.3693 42.9687 52.7052 43.029 53.0197 43.1521C53.3342 43.2752 53.6213 43.4587 53.8645 43.6922C54.1077 43.9257 54.3023 44.2045 54.4371 44.5128C54.572 44.8212 54.6445 45.1529 54.6504 45.489V46.8828C54.6384 47.5626 54.3559 48.2099 53.865 48.6829C53.3741 49.1559 52.7148 49.416 52.0314 49.4062H40.8867V52.6402H74.2567C74.9401 52.628 75.6004 52.8858 76.0931 53.3571C76.5857 53.8283 76.8705 54.4747 76.8849 55.1545V56.5574C76.8705 57.2371 76.5857 57.8835 76.0931 58.3548C75.6004 58.8261 74.9401 59.0839 74.2567 59.0717H40.8867V70.058V72.0895C40.8843 73.6607 41.5088 75.1687 42.6231 76.2824C43.7374 77.396 45.2504 78.0242 46.8299 78.029H92.6175C93.9857 77.9757 95.3116 77.5421 96.4446 76.7772C97.5776 76.0124 98.4725 74.947 99.0277 73.7019L106.354 57.1222L109.174 50.6907L110.649 47.3383L113.46 40.9068C113.887 39.9364 114.074 38.8783 114.006 37.8211C113.937 36.764 113.615 35.7385 113.066 34.8306ZM58.3775 65.1934C58.3655 65.8732 58.0831 66.5204 57.5921 66.9934C57.1012 67.4664 56.4419 67.7265 55.7585 67.7168H48.9453C48.262 67.7265 47.6026 67.4664 47.1116 66.9934C46.6207 66.5204 46.3383 65.8732 46.3263 65.1934V63.7996C46.3383 63.1198 46.6207 62.4726 47.1116 61.9996C47.6026 61.5266 48.262 61.2664 48.9453 61.2762H55.7585C56.4419 61.2664 57.1012 61.5266 57.5921 61.9996C58.0831 62.4726 58.3655 63.1198 58.3775 63.7996V65.1934ZM92.535 55.8559C84.5222 52.212 80.7585 42.7926 85.4746 40.506C89.6505 38.4837 92.535 43.4758 92.535 43.4758C92.535 43.4758 95.4105 38.4837 99.5863 40.506C104.302 42.7926 100.2 52.5946 92.535 55.8559Z" fill="#0300AA"/>
<path d="M16.6191 51.6344H40.9139V58.0659H16.6191C16.2812 58.0719 15.9453 58.0116 15.6308 57.8885C15.3163 57.7654 15.0292 57.5819 14.786 57.3484C14.5428 57.1149 14.3481 56.8361 14.2133 56.5278C14.0784 56.2195 14.006 55.8877 14 55.5516V54.1487C14.006 53.8125 14.0784 53.4808 14.2133 53.1725C14.3481 52.8641 14.5428 52.5853 14.786 52.3518C15.0292 52.1183 15.3163 51.9348 15.6308 51.8117C15.9453 51.6886 16.2812 51.6283 16.6191 51.6344Z" fill="#0300AA"/>
<path d="M34.4162 60.7241H27.6122C26.9288 60.7143 26.2695 60.9745 25.7786 61.4475C25.2877 61.9204 25.0052 62.5677 24.9932 63.2475V64.6413C25.0052 65.321 25.2877 65.9683 25.7786 66.4413C26.2695 66.9143 26.9288 67.1744 27.6122 67.1647H34.4162C35.0996 67.1744 35.759 66.9143 36.2499 66.4413C36.7408 65.9683 37.0233 65.321 37.0353 64.6413V63.2475C37.0233 62.5677 36.7408 61.9204 36.2499 61.4475C35.759 60.9745 35.0996 60.7143 34.4162 60.7241Z" fill="#0300AA"/>
<path d="M32.5643 42.4318H40.8061V48.8633H32.5643C32.2264 48.8693 31.8906 48.8091 31.576 48.686C31.2615 48.5629 30.9745 48.3793 30.7313 48.1459C30.4881 47.9124 30.2935 47.6335 30.1586 47.3252C30.0237 47.0169 29.9513 46.6852 29.9453 46.349V44.9461C29.9513 44.6099 30.0237 44.2782 30.1586 43.9699C30.2935 43.6616 30.4881 43.3827 30.7313 43.1492C30.9745 42.9158 31.2615 42.7322 31.576 42.6091C31.8906 42.486 32.2264 42.4258 32.5643 42.4318Z" fill="#0300AA"/>
<path d="M108.487 32.4075H96.1706L91.5186 42.1367C91.8998 42.5496 92.2402 42.998 92.5351 43.4758C92.5351 43.4758 95.4105 38.4837 99.5864 40.506C104.302 42.7926 100.2 52.5946 92.5351 55.8559C90.4012 54.8826 88.4907 53.4843 86.9215 51.7474L74.3574 78.029H92.5992C93.9674 77.9757 95.2932 77.5421 96.4263 76.7772C97.5593 76.0124 98.4542 74.947 99.0094 73.7019L106.335 57.1222L109.156 50.6907L110.63 47.3383L113.442 40.9068C113.871 39.9378 114.062 38.8805 113.996 37.8234C113.931 36.7662 113.612 35.74 113.066 34.8306C112.57 34.0753 111.891 33.4571 111.09 33.0334C110.289 32.6097 109.394 32.3944 108.487 32.4075Z" fill="#001C5F"/>
<path d="M57.0126 91.229C55.3437 91.2272 53.7118 91.718 52.3234 92.6392C50.935 93.5604 49.8526 94.8707 49.2131 96.4041C48.5736 97.9376 48.4058 99.6253 48.731 101.254C49.0561 102.882 49.8595 104.378 51.0396 105.552C52.2197 106.726 53.7234 107.525 55.3603 107.848C56.9972 108.172 58.6937 108.005 60.2352 107.369C61.7767 106.733 63.0938 105.656 64.0199 104.275C64.9459 102.894 65.4393 101.27 65.4375 99.61C65.4375 97.3872 64.5498 95.2555 62.9699 93.6838C61.3899 92.112 59.247 91.229 57.0126 91.229Z" fill="#FF6B00"/>
<path d="M85.8686 91.229C84.2001 91.229 82.5691 91.7213 81.1819 92.6436C79.7948 93.566 78.7138 94.8768 78.0757 96.4104C77.4376 97.9441 77.2711 99.6315 77.5973 101.259C77.9235 102.887 78.7276 104.382 79.9081 105.555C81.0885 106.728 82.5922 107.526 84.2288 107.849C85.8655 108.172 87.5616 108.004 89.1025 107.368C90.6435 106.731 91.9601 105.655 92.8857 104.274C93.8114 102.893 94.3045 101.27 94.3027 99.61C94.3027 98.5086 94.0845 97.418 93.6605 96.4006C93.2365 95.3832 92.6152 94.4589 91.8319 93.6805C91.0486 92.9022 90.1187 92.285 89.0955 91.8644C88.0723 91.4437 86.9758 91.2278 85.8686 91.229Z" fill="#FF6B00"/>
<path d="M86.9943 84.5607C86.9943 85.155 86.757 85.725 86.3345 86.1453C85.912 86.5655 85.339 86.8016 84.7416 86.8016H58.5145C57.917 86.8016 57.344 86.5655 56.9215 86.1453C56.4991 85.725 56.2617 85.155 56.2617 84.5607C56.2617 83.9663 56.4991 83.3963 56.9215 82.976C57.344 82.5557 57.917 82.3196 58.5145 82.3196H84.7599C85.3574 82.3196 85.9304 82.5557 86.3528 82.976C86.7753 83.3963 87.0127 83.9663 87.0127 84.5607H86.9943Z" fill="#212B38"/>
</g>
<defs>
<filter id="filter0_i_414_138" x="14" y="20" width="105" height="93" filterUnits="userSpaceOnUse" color-interpolation-filters="sRGB">
<feFlood flood-opacity="0" result="BackgroundImageFix"/>
<feBlend mode="normal" in="SourceGraphic" in2="BackgroundImageFix" result="shape"/>
<feColorMatrix in="SourceAlpha" type="matrix" values="0 0 0 0 0 0 0 0 0 0 0 0 0 0 0 0 0 0 127 0" result="hardAlpha"/>
<feOffset dx="5" dy="5"/>
<feGaussianBlur stdDeviation="2.5"/>
<feComposite in2="hardAlpha" operator="arithmetic" k2="-1" k3="1"/>
<feColorMatrix type="matrix" values="0 0 0 0 0 0 0 0 0 0 0 0 0 0 0 0 0 0 0.5 0"/>
<feBlend mode="normal" in2="shape" result="effect1_innerShadow_414_138"/>
</filter>
<linearGradient id="paint0_linear_414_138" x1="-4.5" y1="-11.5" x2="150" y2="159" gradientUnits="userSpaceOnUse">
<stop stop-color="#FDFDFD"/>
<stop offset="0.977568" stop-color="#A4A4A4"/>
</linearGradient>
<clipPath id="clip0_414_138">
<rect width="100" height="88" fill="white" transform="translate(14 20)"/>
</clipPath>
</defs>
</svg>
