<svg width="24" height="25" viewBox="0 0 24 25" fill="none" xmlns="http://www.w3.org/2000/svg">
<path d="M18.0206 11.9574V9.06738C18.0206 5.76738 15.3206 3.06738 12.0206 3.06738C8.71058 3.06738 6.02058 5.75738 6.02058 9.06738V11.9574C6.02058 12.5674 5.76058 13.4974 5.45058 14.0174L4.30058 15.9274C3.59058 17.1074 4.08058 18.4174 5.38058 18.8574C9.69058 20.2974 14.3406 20.2974 18.6506 18.8574C19.8606 18.4574 20.3906 17.0274 19.7306 15.9274" stroke="currentColor" stroke-width="1.5" stroke-miterlimit="10" stroke-linecap="round"/>
<path d="M13.8699 3.35863C13.5599 3.26863 13.2399 3.19863 12.9099 3.15863C11.9499 3.03863 11.0299 3.10863 10.1699 3.35863C10.4599 2.61863 11.1799 2.09863 12.0199 2.09863C12.8599 2.09863 13.5799 2.61863 13.8699 3.35863Z" stroke="currentColor" stroke-width="1.5" stroke-miterlimit="10" stroke-linecap="round" stroke-linejoin="round"/>
<path d="M15.0195 19.2158C15.0195 20.8658 13.6695 22.2158 12.0195 22.2158C11.1995 22.2158 10.4395 21.8758 9.89953 21.3358C9.35953 20.7958 9.01953 20.0358 9.01953 19.2158" stroke="currentColor" stroke-width="1.5" stroke-miterlimit="10"/>
<circle cx="18.4004" cy="6.15723" r="4" fill="#FF0000"/>
<path d="M17.8276 4.85225C17.851 4.54558 17.9693 4.30558 18.1826 4.13225C18.396 3.95892 18.6726 3.87225 19.0126 3.87225C19.2393 3.87225 19.4343 3.91392 19.5976 3.99725C19.7643 4.07725 19.8893 4.18725 19.9726 4.32725C20.0593 4.46725 20.1026 4.62558 20.1026 4.80225C20.1026 5.00892 20.0426 5.18725 19.9226 5.33725C19.806 5.48725 19.6526 5.58392 19.4626 5.62725V5.65225C19.6793 5.70558 19.851 5.81058 19.9776 5.96725C20.1043 6.12392 20.1676 6.32892 20.1676 6.58225C20.1676 6.77225 20.1243 6.94392 20.0376 7.09725C19.951 7.24725 19.821 7.36558 19.6476 7.45225C19.4743 7.53892 19.266 7.58225 19.0226 7.58225C18.6693 7.58225 18.3793 7.49058 18.1526 7.30725C17.926 7.12058 17.7993 6.85725 17.7726 6.51725H18.2126C18.236 6.71725 18.3176 6.88058 18.4576 7.00725C18.5976 7.13392 18.7843 7.19725 19.0176 7.19725C19.251 7.19725 19.4276 7.13725 19.5476 7.01725C19.671 6.89392 19.7326 6.73558 19.7326 6.54225C19.7326 6.29225 19.6493 6.11225 19.4826 6.00225C19.316 5.89225 19.0643 5.83725 18.7276 5.83725H18.6126V5.45725H18.7326C19.0393 5.45392 19.271 5.40392 19.4276 5.30725C19.5843 5.20725 19.6626 5.05392 19.6626 4.84725C19.6626 4.67058 19.6043 4.52892 19.4876 4.42225C19.3743 4.31558 19.211 4.26225 18.9976 4.26225C18.791 4.26225 18.6243 4.31558 18.4976 4.42225C18.371 4.52892 18.296 4.67225 18.2726 4.85225H17.8276Z" fill="white"/>
</svg>
