<svg width="19" height="19" viewBox="0 0 19 19" fill="none" xmlns="http://www.w3.org/2000/svg">
<path d="M17.1742 9.12841L18.1462 7.40914C18.263 7.20229 18.2948 6.95642 18.2345 6.7256C18.1742 6.49478 18.0269 6.29791 17.8248 6.17826L16.1431 5.18347V3.20108C16.1431 2.9621 16.0504 2.73291 15.8853 2.56392C15.7201 2.39494 15.4962 2.3 15.2627 2.3H13.3265L12.3554 0.579836C12.2381 0.373412 12.0461 0.222561 11.821 0.159931C11.7093 0.128948 11.5927 0.120959 11.478 0.136427C11.3633 0.151895 11.2527 0.190512 11.1527 0.250039L9.47102 1.24483L7.78935 0.249138C7.58712 0.129653 7.34681 0.0972726 7.12126 0.159121C6.89571 0.220969 6.7034 0.37198 6.58664 0.578935L5.61461 2.3H3.67849C3.44498 2.3 3.22103 2.39494 3.05591 2.56392C2.89079 2.73291 2.79803 2.9621 2.79803 3.20108V5.18257L1.11635 6.17736C1.01601 6.23643 0.92806 6.31521 0.857556 6.40917C0.787053 6.50314 0.735385 6.61043 0.705523 6.72489C0.67566 6.83936 0.668191 6.95873 0.683544 7.07615C0.698897 7.19358 0.73677 7.30674 0.794987 7.40914L1.76701 9.12841L0.794987 10.8477C0.678757 11.0547 0.647221 11.3004 0.707257 11.5311C0.767292 11.7619 0.914029 11.959 1.11547 12.0794L2.79715 13.0742V15.0557C2.79715 15.2947 2.88991 15.5239 3.05503 15.6929C3.22015 15.8619 3.4441 15.9568 3.67761 15.9568H5.61461L6.58664 17.6779C6.66459 17.8142 6.77588 17.9275 6.90957 18.0065C7.04326 18.0855 7.19475 18.1275 7.34912 18.1284C7.50232 18.1284 7.65464 18.087 7.79023 18.0068L9.47014 17.012L11.1518 18.0068C11.354 18.1261 11.5941 18.1585 11.8196 18.0968C12.0451 18.0352 12.2374 17.8845 12.3545 17.6779L13.3257 15.9568H15.2618C15.4953 15.9568 15.7193 15.8619 15.8844 15.6929C16.0495 15.5239 16.1423 15.2947 16.1423 15.0557V13.0742L17.8239 12.0794C17.9241 12.0202 18.0119 11.9413 18.0823 11.8474C18.1526 11.7534 18.2042 11.6461 18.2341 11.5317C18.2639 11.4173 18.2714 11.298 18.2562 11.1807C18.241 11.0633 18.2033 10.9501 18.1453 10.8477L17.1742 9.12841ZM7.269 4.61398C7.61938 4.6141 7.95537 4.75667 8.20304 5.01031C8.45072 5.26396 8.5898 5.60791 8.58968 5.96651C8.58957 6.3251 8.45026 6.66896 8.20242 6.92244C7.95458 7.17591 7.6185 7.31825 7.26812 7.31813C6.91773 7.31801 6.58174 7.17545 6.33407 6.9218C6.08639 6.66815 5.94731 6.3242 5.94743 5.96561C5.94755 5.60701 6.08685 5.26316 6.33469 5.00968C6.58253 4.7562 6.91861 4.61386 7.269 4.61398ZM7.53313 13.2644L6.1244 12.184L11.4071 4.97532L12.8159 6.05571L7.53313 13.2644ZM11.6713 13.6248C11.4978 13.6247 11.326 13.5897 11.1657 13.5217C11.0055 13.4537 10.8599 13.3541 10.7372 13.2285C10.6146 13.1029 10.5173 12.9538 10.451 12.7897C10.3847 12.6257 10.3505 12.4498 10.3506 12.2723C10.3507 12.0947 10.3849 11.9189 10.4513 11.7549C10.5178 11.5909 10.6151 11.4419 10.7379 11.3164C10.8606 11.1908 11.0063 11.0913 11.1666 11.0234C11.3269 10.9555 11.4987 10.9206 11.6722 10.9207C12.0226 10.9208 12.3585 11.0633 12.6062 11.317C12.8539 11.5706 12.993 11.9146 12.9929 12.2732C12.9927 12.6318 12.8534 12.9756 12.6056 13.2291C12.3578 13.4826 12.0217 13.6249 11.6713 13.6248Z" fill="currentColor"/>
</svg>
