<svg width="22" height="22" viewBox="0 0 22 22" fill="none" xmlns="http://www.w3.org/2000/svg">
<path d="M10.9923 21C10.9265 21 10.8599 20.9842 10.7999 20.9525L1.2251 15.9524C1.08763 15.8807 1.00098 15.7382 1.00098 15.5832V6.20801C1.00098 6.06384 1.07596 5.92967 1.19844 5.85383C1.32091 5.778 1.47505 5.77133 1.60336 5.8355L11.1781 10.6273C11.3189 10.6981 11.4081 10.8423 11.4081 10.9998V20.5833C11.4081 20.7292 11.3323 20.8642 11.2073 20.94C11.1423 20.98 11.0673 21 10.9923 21ZM1.83414 15.3307L10.5757 19.8958V11.2573L1.83414 6.88219V15.3307Z" fill="currentColor" stroke="currentColor" stroke-width="0.5"/>
<path d="M11.0055 21.0002C10.9305 21.0002 10.8555 20.9801 10.7897 20.9401C10.6655 20.8643 10.5889 20.7293 10.5889 20.5835V10.9999C10.5889 10.8424 10.678 10.6982 10.8188 10.6274L20.3936 5.83563C20.5211 5.77063 20.676 5.7773 20.7985 5.85397C20.9218 5.9298 20.9968 6.06397 20.9968 6.20814V15.5834C20.9968 15.7384 20.9102 15.8809 20.7727 15.9525L11.1979 20.9527C11.1379 20.9843 11.0713 21.0002 11.0055 21.0002ZM11.422 11.2574V19.896L20.1636 15.3309V6.88232L11.422 11.2574ZM20.5802 15.5834H20.5886H20.5802Z" fill="currentColor" stroke="currentColor" stroke-width="0.5"/>
<path d="M1.41745 6.62471C1.26415 6.62471 1.11751 6.54054 1.04419 6.39471C0.940878 6.18887 1.02503 5.93886 1.23082 5.83553L10.8189 1.04375C10.9364 0.985416 11.0747 0.985416 11.1913 1.04375L20.7661 5.83553C20.9719 5.93886 21.0552 6.18887 20.9528 6.39471C20.8494 6.60055 20.6003 6.68305 20.3937 6.58138L11.0056 1.8821L1.60408 6.58055C1.54409 6.61055 1.48077 6.62471 1.41745 6.62471Z" fill="currentColor" stroke="currentColor" stroke-width="0.5"/>
<path d="M15.9984 13.4997C15.7684 13.4997 15.5818 13.3131 15.5818 13.083V8.75711L6.23699 4.08034C6.0312 3.97783 5.94788 3.72699 6.0512 3.52116C6.15451 3.31532 6.40446 3.23282 6.61025 3.33449L16.185 8.12626C16.3258 8.19793 16.415 8.3421 16.415 8.49961V13.083C16.415 13.3131 16.2283 13.4997 15.9984 13.4997Z" fill="currentColor" stroke="currentColor" stroke-width="0.5"/>
</svg>
