<svg width="53" height="53" viewBox="0 0 53 53" fill="none" xmlns="http://www.w3.org/2000/svg">
<ellipse cx="26.1132" cy="26.2371" rx="26.1132" ry="26" fill="#F5F5F5"/>
<path d="M25.1092 41.2371C33.4296 41.2371 40.1745 34.5213 40.1745 26.2371C40.1745 17.9528 33.4296 11.2371 25.1092 11.2371C16.7889 11.2371 10.0439 17.9528 10.0439 26.2371C10.0439 34.5213 16.7889 41.2371 25.1092 41.2371Z" fill="#5F259F"/>
<path d="M31.9464 22.3224C31.9464 21.7361 31.4413 21.2332 30.8524 21.2332H28.8327L24.2038 15.9541C23.7831 15.4512 23.1099 15.2838 22.4366 15.4512L20.8376 15.9541C20.5851 16.038 20.5007 16.373 20.6694 16.5405L25.719 21.3172H18.0594C17.8069 21.3172 17.6387 21.4846 17.6387 21.7361V22.5739C17.6387 23.1602 18.1437 23.6631 18.7326 23.6631H19.9109V27.6855C19.9109 30.7022 21.51 32.4622 24.2034 32.4622C25.0448 32.4622 25.7185 32.3783 26.56 32.0433V34.7251C26.56 35.4794 27.1489 36.0657 27.9065 36.0657H29.0848C29.3373 36.0657 29.5898 35.8143 29.5898 35.5629V23.5796H31.5257C31.7782 23.5796 31.9464 23.4121 31.9464 23.1607V22.3224ZM26.56 29.529C26.0549 29.7805 25.3817 29.8644 24.8766 29.8644C23.5301 29.8644 22.8569 29.1941 22.8569 27.6855V23.6631H26.56V29.529Z" fill="white"/>
</svg>
