<svg width="31" height="31" viewBox="0 0 31 31" fill="none" xmlns="http://www.w3.org/2000/svg">
<path d="M15.1092 30.2371C23.4296 30.2371 30.1745 23.5213 30.1745 15.2371C30.1745 6.95279 23.4296 0.237061 15.1092 0.237061C6.7889 0.237061 0.0439453 6.95279 0.0439453 15.2371C0.0439453 23.5213 6.7889 30.2371 15.1092 30.2371Z" fill="#5F259F"/>
<path d="M21.9464 11.3224C21.9464 10.7361 21.4413 10.2332 20.8524 10.2332H18.8327L14.2038 4.95408C13.7831 4.45122 13.1099 4.28375 12.4366 4.45122L10.8376 4.95408C10.5851 5.03804 10.5007 5.37298 10.6694 5.54045L15.719 10.3172H8.0594C7.80687 10.3172 7.63867 10.4846 7.63867 10.7361V11.5739C7.63867 12.1602 8.14372 12.6631 8.73264 12.6631H9.91094V16.6855C9.91094 19.7022 11.51 21.4622 14.2034 21.4622C15.0448 21.4622 15.7185 21.3783 16.56 21.0433V23.7251C16.56 24.4794 17.1489 25.0657 17.9065 25.0657H19.0848C19.3373 25.0657 19.5898 24.8143 19.5898 24.5629V12.5796H21.5257C21.7782 12.5796 21.9464 12.4121 21.9464 12.1607V11.3224ZM16.56 18.529C16.0549 18.7805 15.3817 18.8644 14.8766 18.8644C13.5301 18.8644 12.8569 18.1941 12.8569 16.6855V12.6631H16.56V18.529Z" fill="white"/>
</svg>
