<svg width="25" height="24" viewBox="0 0 25 24" fill="none" xmlns="http://www.w3.org/2000/svg">
<path d="M12.5358 2.25005C7.05233 2.17599 2.57577 6.65255 2.64983 12.136C2.72296 17.3949 7.00499 21.6769 12.2639 21.7501C17.7483 21.8251 22.2239 17.3485 22.1489 11.8651C22.0767 6.60521 17.7947 2.32318 12.5358 2.25005ZM18.4617 17.5899C18.443 17.6101 18.4201 17.6259 18.3947 17.6363C18.3692 17.6466 18.3418 17.6513 18.3143 17.6498C18.2868 17.6484 18.26 17.641 18.2357 17.628C18.2115 17.6151 18.1904 17.5969 18.1739 17.5749C17.7546 17.0263 17.2412 16.5567 16.6575 16.1879C15.464 15.4219 13.9519 15.0001 12.3998 15.0001C10.8478 15.0001 9.33561 15.4219 8.14218 16.1879C7.55852 16.5565 7.04506 17.026 6.62577 17.5744C6.6093 17.5965 6.58818 17.6146 6.56392 17.6275C6.53966 17.6405 6.51284 17.6479 6.48538 17.6494C6.45791 17.6508 6.43047 17.6462 6.40499 17.6358C6.37951 17.6255 6.35663 17.6096 6.33796 17.5894C4.96249 16.1046 4.18334 14.1644 4.14983 12.1407C4.07343 7.57927 7.81639 3.7613 12.3797 3.75005C16.943 3.7388 20.6498 7.44427 20.6498 12.0001C20.6514 14.0726 19.8698 16.0692 18.4617 17.5899Z" fill="currentColor" fill-opacity="0.8"/>
<path d="M12.3999 6.75C11.4755 6.75 10.6397 7.09641 10.0458 7.72594C9.45189 8.35547 9.15518 9.22594 9.22221 10.1602C9.35815 12 10.7836 13.5 12.3999 13.5C14.0161 13.5 15.4388 12 15.5775 10.1606C15.6469 9.23531 15.3525 8.37281 14.7488 7.73156C14.1525 7.09875 13.3181 6.75 12.3999 6.75Z" fill="currentColor" fill-opacity="0.8"/>
</svg>
