<svg width="20" height="20" viewBox="0 0 20 20" fill="currentColor" xmlns="http://www.w3.org/2000/svg">
<path d="M5.83301 14.1775L9.51051 14.165L17.5372 6.21499C17.8522 5.89999 18.0255 5.48166 18.0255 5.03666C18.0255 4.59166 17.8522 4.17332 17.5372 3.85832L16.2155 2.53666C15.5855 1.90666 14.4863 1.90999 13.8613 2.53416L5.83301 10.4858V14.1775ZM15.0372 3.71499L16.3613 5.03416L15.0305 6.35249L13.7088 5.03166L15.0372 3.71499ZM7.49967 11.1808L12.5247 6.20332L13.8463 7.52499L8.82217 12.5008L7.49967 12.505V11.1808Z" fill="currentColor"/>
<path d="M4.16667 17.5H15.8333C16.7525 17.5 17.5 16.7525 17.5 15.8333V8.61L15.8333 10.2767V15.8333H6.79833C6.77667 15.8333 6.75417 15.8417 6.7325 15.8417C6.705 15.8417 6.6775 15.8342 6.64917 15.8333H4.16667V4.16667H9.8725L11.5392 2.5H4.16667C3.2475 2.5 2.5 3.2475 2.5 4.16667V15.8333C2.5 16.7525 3.2475 17.5 4.16667 17.5Z" fill="currentColor"/>
</svg>
