<svg width="20" height="20" viewBox="0 0 20 20" fill="none" xmlns="http://www.w3.org/2000/svg">
<path d="M19.3479 10.6817H6.73909C6.37909 10.6817 6.08691 10.3763 6.08691 9.99993C6.08691 9.62357 6.37909 9.31812 6.73909 9.31812H19.3479C19.7079 9.31812 20 9.62357 20 9.99993C20 10.3763 19.7079 10.6817 19.3479 10.6817Z" fill="currentColor"/>
<path d="M10.2181 14.3183C10.0511 14.3183 9.88422 14.252 9.75716 14.1184L6.27896 10.4821C6.0242 10.2156 6.0242 9.78377 6.27896 9.51744L9.75716 5.88115C10.0119 5.61481 10.4249 5.61481 10.6798 5.88115C10.9346 6.14748 10.9346 6.57927 10.6798 6.84561L7.66243 10.0002L10.6798 13.1547C10.9346 13.4211 10.9346 13.8529 10.6798 14.1192C10.552 14.252 10.385 14.3183 10.2181 14.3183Z" fill="currentColor"/>
<path d="M9.56525 20C4.29135 20 0 15.5136 0 10C0 4.48639 4.29135 0 9.56525 0C13.5226 0 17.0165 2.48906 18.4678 6.34191C18.6 6.6918 18.4347 7.08731 18.1 7.2263C17.7652 7.3628 17.3869 7.19268 17.2539 6.84095C16.0008 3.51361 12.9826 1.36363 9.56525 1.36363C5.01039 1.36363 1.30435 5.23829 1.30435 10C1.30435 14.7617 5.01039 18.6364 9.56525 18.6364C12.9826 18.6364 16.0008 16.4864 17.2539 13.16C17.3861 12.8082 17.7644 12.6382 18.1 12.7745C18.4347 12.9127 18.6 13.309 18.4678 13.6591C17.0165 17.5109 13.5226 20 9.56525 20Z" fill="currentColor"/>
</svg>
