<svg width="88" height="15" viewBox="0 0 88 15" fill="none" xmlns="http://www.w3.org/2000/svg">
<path d="M69.4496 5.6028C69.352 5.29927 69.0841 5.08368 68.7672 5.05498L64.4624 4.66212L62.7602 0.65775C62.6346 0.364282 62.3488 0.174316 62.0312 0.174316C61.7136 0.174316 61.4277 0.364282 61.3022 0.658437L59.6 4.66212L55.2945 5.05498C54.9782 5.08437 54.711 5.29927 54.6128 5.6028C54.5146 5.90633 54.6052 6.23926 54.8446 6.44912L58.0985 9.31725L57.139 13.5652C57.0688 13.8776 57.1894 14.2004 57.4472 14.3878C57.5858 14.4884 57.748 14.5396 57.9115 14.5396C58.0525 14.5396 58.1924 14.5014 58.3179 14.426L62.0312 12.1954L65.7431 14.426C66.0148 14.5902 66.3572 14.5752 66.6145 14.3878C66.8724 14.1999 66.9929 13.8769 66.9227 13.5652L65.9632 9.31725L69.2171 6.4497C69.4565 6.23926 69.5478 5.9069 69.4496 5.6028Z" fill="#FFC107"/>
<path d="M51.5517 5.6028C51.454 5.29927 51.1862 5.08368 50.8693 5.05498L46.5644 4.66212L44.8622 0.65775C44.7367 0.364282 44.4508 0.174316 44.1332 0.174316C43.8156 0.174316 43.5298 0.364282 43.4043 0.658437L41.702 4.66212L37.3965 5.05498C37.0802 5.08437 36.813 5.29927 36.7148 5.6028C36.6166 5.90633 36.7073 6.23926 36.9466 6.44912L40.2005 9.31725L39.241 13.5652C39.1708 13.8776 39.2914 14.2004 39.5493 14.3878C39.6879 14.4884 39.8501 14.5396 40.0136 14.5396C40.1546 14.5396 40.2944 14.5014 40.4199 14.426L44.1332 12.1954L47.8452 14.426C48.1168 14.5902 48.4592 14.5752 48.7165 14.3878C48.9745 14.1999 49.095 13.8769 49.0248 13.5652L48.0653 9.31725L51.3192 6.4497C51.5585 6.23926 51.6499 5.9069 51.5517 5.6028Z" fill="#FFC107"/>
<path d="M33.6542 5.6028C33.5566 5.29927 33.2887 5.08368 32.9718 5.05498L28.667 4.66212L26.9647 0.65775C26.8392 0.364282 26.5534 0.174316 26.2358 0.174316C25.9182 0.174316 25.6323 0.364282 25.5068 0.658437L23.8046 4.66212L19.4991 5.05498C19.1827 5.08437 18.9156 5.29927 18.8173 5.6028C18.7191 5.90633 18.8098 6.23926 19.0491 6.44912L22.3031 9.31725L21.3436 13.5652C21.2734 13.8776 21.394 14.2004 21.6518 14.3878C21.7904 14.4884 21.9526 14.5396 22.1161 14.5396C22.2571 14.5396 22.397 14.5014 22.5225 14.426L26.2358 12.1954L29.9477 14.426C30.2194 14.5902 30.5618 14.5752 30.819 14.3878C31.077 14.1999 31.1975 13.8769 31.1273 13.5652L30.1678 9.31725L33.4217 6.4497C33.661 6.23926 33.7524 5.9069 33.6542 5.6028Z" fill="#FFC107"/>
<path d="M15.7563 5.60268C15.6586 5.29914 15.3908 5.08356 15.0738 5.05485L10.769 4.662L9.06679 0.657628C8.94128 0.36416 8.65543 0.174194 8.33783 0.174194C8.02023 0.174194 7.73439 0.36416 7.60887 0.658315L5.90663 4.662L1.60114 5.05485C1.28479 5.08425 1.0176 5.29914 0.9194 5.60268C0.821197 5.90621 0.91189 6.23914 1.1512 6.449L4.40513 9.31713L3.44562 13.5651C3.37541 13.8774 3.49603 14.2003 3.75388 14.3876C3.89249 14.4883 4.05464 14.5395 4.21816 14.5395C4.35915 14.5395 4.49901 14.5013 4.62452 14.4258L8.33783 12.1953L12.0498 14.4258C12.3214 14.5901 12.6638 14.5751 12.9211 14.3876C13.1791 14.1997 13.2996 13.8768 13.2294 13.5651L12.2699 9.31713L15.5238 6.44957C15.7631 6.23914 15.8545 5.90678 15.7563 5.60268Z" fill="#FFC107"/>
<path d="M87.3685 5.52067C87.3139 5.35291 87.15 5.24768 86.8772 5.20504L82.308 4.53733L80.2602 0.375011C80.1327 0.124961 79.9841 0 79.8142 0C79.6383 0 79.4896 0.124961 79.3683 0.375011L77.3203 4.53733L72.7511 5.20504C72.478 5.24772 72.3142 5.35291 72.2596 5.52067C72.2051 5.68844 72.2749 5.86986 72.469 6.06502L75.7821 9.30337L74.9994 13.8772C74.9691 14.0786 74.9872 14.2352 75.054 14.3483C75.1207 14.4612 75.2239 14.5176 75.3635 14.5176C75.4667 14.5176 75.588 14.481 75.7276 14.4076L79.8144 12.2486L83.9012 14.4076C84.0407 14.4808 84.1621 14.5176 84.2653 14.5176C84.405 14.5176 84.5083 14.4612 84.5749 14.3483C84.6414 14.2352 84.6596 14.0786 84.6293 13.8772L83.8466 9.30337L87.1504 6.06502C87.3507 5.86986 87.4234 5.68844 87.3685 5.52067ZM83.0362 8.46171L82.5902 8.89174L82.6996 9.49549L83.2456 12.7431L80.3513 11.2062L79.8142 10.9225V2.11312L81.2614 5.05877L81.5343 5.60757L82.1352 5.69908L85.3756 6.1747L83.0362 8.46171Z" fill="#FFC107"/>
</svg>
