<svg width="20" height="20" viewBox="0 0 20 20" fill="none" xmlns="http://www.w3.org/2000/svg">
<path d="M4.95538 2.69797C8.4701 -0.199137 13.6643 0.0024634 16.9455 3.30278C20.4396 6.81729 20.4396 12.5161 16.9455 16.0306C13.4514 19.5451 7.78559 19.5451 4.29145 16.0306C3.21933 14.9535 2.43696 13.6199 2.01781 12.1552C1.59866 10.6905 1.55647 9.14261 1.89522 7.65699L1.96412 7.37529L3.69463 7.83429C3.26562 9.47433 3.42592 11.2141 4.14729 12.7469C4.86865 14.2797 6.10477 15.5072 7.6378 16.213C9.17083 16.9189 10.9024 17.0578 12.5273 16.6053C14.1522 16.1528 15.5661 15.138 16.52 13.7396C17.4738 12.3412 17.9063 10.649 17.7412 8.96133C17.5761 7.27362 16.824 5.69869 15.6175 4.51409C14.411 3.3295 12.8275 2.61127 11.1461 2.48599C9.46469 2.36071 7.79327 2.83642 6.42641 3.82928L6.22956 3.97868L7.13955 4.89398L3.02713 5.84798L3.9756 1.71157L4.95538 2.69797ZM11.5133 4.26668V6.06669H13.7502V7.86669H8.8289C8.7171 7.86648 8.60928 7.90839 8.52666 7.98415C8.44404 8.05991 8.39262 8.16404 8.38252 8.27603C8.37242 8.38802 8.40437 8.49976 8.47208 8.58924C8.53979 8.67872 8.63836 8.73946 8.74837 8.75949L8.8289 8.7667H12.408C13.0013 8.7667 13.5703 9.00375 13.9898 9.42571C14.4093 9.84767 14.645 10.42 14.645 11.0167C14.645 11.6134 14.4093 12.1857 13.9898 12.6077C13.5703 13.0297 13.0013 13.2667 12.408 13.2667H11.5133V15.0667H9.72369V13.2667H7.48673V11.4667H12.408C12.5198 11.4669 12.6277 11.425 12.7103 11.3492C12.7929 11.2735 12.8443 11.1694 12.8544 11.0574C12.8645 10.9454 12.8326 10.8336 12.7649 10.7442C12.6971 10.6547 12.5986 10.5939 12.4886 10.5739L12.408 10.5667H8.8289C8.23563 10.5667 7.66665 10.3296 7.24713 9.90769C6.82762 9.48573 6.59194 8.91343 6.59194 8.31669C6.59194 7.71995 6.82762 7.14766 7.24713 6.7257C7.66665 6.30374 8.23563 6.06669 8.8289 6.06669H9.72369V4.26668H11.5133Z" fill="currentColor"/>
</svg>
