<svg width="25" height="24" viewBox="0 0 25 24" fill="none" xmlns="http://www.w3.org/2000/svg">
<path d="M17.2002 22.75H7.2002C3.7602 22.75 1.4502 20.44 1.4502 17V12C1.4502 8.92 3.3502 6.69001 6.3002 6.32001C6.5802 6.28001 6.8902 6.25 7.2002 6.25H17.2002C17.4402 6.25 17.7502 6.26 18.0702 6.31C21.0202 6.65 22.9502 8.89 22.9502 12V17C22.9502 20.44 20.6402 22.75 17.2002 22.75ZM7.2002 7.75C6.9602 7.75 6.7302 7.76999 6.5002 7.79999C4.3002 8.07999 2.9502 9.68 2.9502 12V17C2.9502 19.58 4.6202 21.25 7.2002 21.25H17.2002C19.7802 21.25 21.4502 19.58 21.4502 17V12C21.4502 9.66 20.0802 8.05001 17.8602 7.79001C17.6202 7.75001 17.4102 7.75 17.2002 7.75H7.2002Z" fill="currentColor" fill-opacity="0.8"/>
<path d="M6.3922 7.81141C6.1522 7.81141 5.9322 7.70142 5.7822 7.50142C5.6122 7.27142 5.5922 6.97142 5.7222 6.72142C5.8922 6.38142 6.1322 6.05142 6.4422 5.75142L9.69219 2.49141C11.3522 0.841405 14.0522 0.841405 15.7122 2.49141L17.4622 4.26143C18.2022 4.99143 18.6522 5.97143 18.7022 7.01143C18.7122 7.24143 18.6222 7.4614 18.4522 7.6114C18.2822 7.7614 18.0522 7.83142 17.8322 7.79142C17.6322 7.76142 17.4222 7.75142 17.2022 7.75142H7.2022C6.9622 7.75142 6.7322 7.7714 6.5022 7.8014C6.4722 7.8114 6.4322 7.81141 6.3922 7.81141ZM8.0622 6.25142H17.0222C16.8922 5.91142 16.6822 5.60142 16.4022 5.32142L14.6422 3.54142C13.5722 2.48142 11.8222 2.48142 10.7422 3.54142L8.0622 6.25142Z" fill="currentColor" fill-opacity="0.8"/>
<path d="M22.2002 17.25H19.2002C17.6802 17.25 16.4502 16.02 16.4502 14.5C16.4502 12.98 17.6802 11.75 19.2002 11.75H22.2002C22.6102 11.75 22.9502 12.09 22.9502 12.5C22.9502 12.91 22.6102 13.25 22.2002 13.25H19.2002C18.5102 13.25 17.9502 13.81 17.9502 14.5C17.9502 15.19 18.5102 15.75 19.2002 15.75H22.2002C22.6102 15.75 22.9502 16.09 22.9502 16.5C22.9502 16.91 22.6102 17.25 22.2002 17.25Z" fill="currentColor" fill-opacity="0.8"/>
</svg>
