<svg width="18" height="18" viewBox="0 0 18 18" fill="none" xmlns="http://www.w3.org/2000/svg">
<circle opacity="0.6" cx="9" cy="9" r="9" fill="black"/>
<path d="M9.06 12.9997L9 13.0555L8.934 12.9997C6.084 10.5928 4.2 9.00123 4.2 7.38734C4.2 6.27046 5.1 5.4328 6.3 5.4328C7.224 5.4328 8.124 5.99124 8.442 6.75072H9.558C9.876 5.99124 10.776 5.4328 11.7 5.4328C12.9 5.4328 13.8 6.27046 13.8 7.38734C13.8 9.00123 11.916 10.5928 9.06 12.9997ZM11.7 4.31592C10.656 4.31592 9.654 4.76825 9 5.47747C8.346 4.76825 7.344 4.31592 6.3 4.31592C4.452 4.31592 3 5.66176 3 7.38734C3 9.49265 5.04 11.2182 8.13 13.8261L9 14.5633L9.87 13.8261C12.96 11.2182 15 9.49265 15 7.38734C15 5.66176 13.548 4.31592 11.7 4.31592Z" fill="#F1F1F1"/>
</svg>
