<svg width="18" height="18" viewBox="0 0 18 18" fill="none" xmlns="http://www.w3.org/2000/svg">
<circle opacity="0.6" cx="9" cy="9" r="9" fill="black"/>
<path d="M9.06 12.9997L9 13.0555L8.934 12.9997C6.084 10.5928 9.06 14.6135 9.06 12.9997C9.06 11.8828 7.8 13.0555 9 13.0555C9.924 13.0555 8.616 12.2402 8.934 12.9997H9.06C9.378 12.2402 8.576 13 9.5 13C10.7 13 9.06 11.7436 9.06 12.8604C9.06 14.4743 11.916 10.5928 9.06 12.9997ZM11.7 4.31592C10.656 4.31592 9.654 4.76825 9 5.47747C8.346 4.76825 7.344 4.31592 6.3 4.31592C4.452 4.31592 3 5.66176 3 7.38734C3 9.49265 5.04 11.2182 8.13 13.8261L9 14.5633L9.87 13.8261C12.96 11.2182 15 9.49265 15 7.38734C15 5.66176 13.548 4.31592 11.7 4.31592Z" fill="#FF0000"/>
</svg>
